<?xml version="1.0" encoding="UTF-8" standalone="no"?><svg xmlns="http://www.w3.org/2000/svg" xmlns:xlink="http://www.w3.org/1999/xlink" contentScriptType="application/ecmascript" contentStyleType="text/css" height="228px" preserveAspectRatio="none" style="width:1322px;height:228px;" version="1.1" viewBox="0 0 1322 228" width="1322px" zoomAndPan="magnify"><defs><filter height="300%" id="fn6fy7tkzhb0k" width="300%" x="-1" y="-1"><feGaussianBlur result="blurOut" stdDeviation="2.0"/><feColorMatrix in="blurOut" result="blurOut2" type="matrix" values="0 0 0 0 0 0 0 0 0 0 0 0 0 0 0 0 0 0 .4 0"/><feOffset dx="4.0" dy="4.0" in="blurOut2" result="blurOut3"/><feBlend in="SourceGraphic" in2="blurOut3" mode="normal"/></filter></defs><g><!--MD5=[819d6ec098e7107626c5e1444f9f44c4]
class CollisionFactory--><rect codeLine="2" fill="#FEFECE" filter="url(#fn6fy7tkzhb0k)" height="60.8047" id="CollisionFactory" style="stroke:#A80036;stroke-width:1.5;" width="145" x="1091" y="13.5"/><ellipse cx="1113.2" cy="29.5" fill="#ADD1B2" rx="11" ry="11" style="stroke:#A80036;stroke-width:1.0;"/><path d="M1116.1688,35.1406 Q1115.5906,35.4375 1114.95,35.5781 Q1114.3094,35.7344 1113.6063,35.7344 Q1111.1063,35.7344 1109.7781,34.0938 Q1108.4656,32.4375 1108.4656,29.3125 Q1108.4656,26.1875 1109.7781,24.5313 Q1111.1063,22.875 1113.6063,22.875 Q1114.3094,22.875 1114.95,23.0313 Q1115.6063,23.1875 1116.1688,23.4844 L1116.1688,26.2031 Q1115.5438,25.625 1114.95,25.3594 Q1114.3563,25.0781 1113.7313,25.0781 Q1112.3875,25.0781 1111.7,26.1563 Q1111.0125,27.2188 1111.0125,29.3125 Q1111.0125,31.4063 1111.7,32.4844 Q1112.3875,33.5469 1113.7313,33.5469 Q1114.3563,33.5469 1114.95,33.2813 Q1115.5438,33 1116.1688,32.4219 L1116.1688,35.1406 Z " fill="#000000"/><text fill="#000000" font-family="sans-serif" font-size="12" lengthAdjust="spacing" textLength="97" x="1128.8" y="33.6543">CollisionFactory</text><line style="stroke:#A80036;stroke-width:1.5;" x1="1092" x2="1235" y1="45.5" y2="45.5"/><line style="stroke:#A80036;stroke-width:1.5;" x1="1092" x2="1235" y1="53.5" y2="53.5"/><text fill="#000000" font-family="sans-serif" font-size="11" lengthAdjust="spacing" text-decoration="underline" textLength="133" x="1097" y="67.7104">EO *create(const GO *)</text><!--MD5=[348da535070284c58c99d2a0d4bef6d6]
class CollisionShapeFactory--><rect codeLine="6" fill="#FEFECE" filter="url(#fn6fy7tkzhb0k)" height="60.8047" id="CollisionShapeFactory" style="stroke:#A80036;stroke-width:1.5;" width="281" x="40" y="13.5"/><ellipse cx="107.75" cy="29.5" fill="#ADD1B2" rx="11" ry="11" style="stroke:#A80036;stroke-width:1.0;"/><path d="M110.7188,35.1406 Q110.1406,35.4375 109.5,35.5781 Q108.8594,35.7344 108.1563,35.7344 Q105.6563,35.7344 104.3281,34.0938 Q103.0156,32.4375 103.0156,29.3125 Q103.0156,26.1875 104.3281,24.5313 Q105.6563,22.875 108.1563,22.875 Q108.8594,22.875 109.5,23.0313 Q110.1563,23.1875 110.7188,23.4844 L110.7188,26.2031 Q110.0938,25.625 109.5,25.3594 Q108.9063,25.0781 108.2813,25.0781 Q106.9375,25.0781 106.25,26.1563 Q105.5625,27.2188 105.5625,29.3125 Q105.5625,31.4063 106.25,32.4844 Q106.9375,33.5469 108.2813,33.5469 Q108.9063,33.5469 109.5,33.2813 Q110.0938,33 110.7188,32.4219 L110.7188,35.1406 Z " fill="#000000"/><text fill="#000000" font-family="sans-serif" font-size="12" lengthAdjust="spacing" textLength="137" x="128.25" y="33.6543">CollisionShapeFactory</text><line style="stroke:#A80036;stroke-width:1.5;" x1="41" x2="320" y1="45.5" y2="45.5"/><line style="stroke:#A80036;stroke-width:1.5;" x1="41" x2="320" y1="53.5" y2="53.5"/><text fill="#000000" font-family="sans-serif" font-size="11" lengthAdjust="spacing" text-decoration="underline" textLength="269" x="46" y="67.7104">btCollisionShape *create(const G3D::AShape *)</text><!--MD5=[3074bec4ad01d4da007fb48723fac290]
class PhysicsBodyFactory--><rect codeLine="10" fill="#FEFECE" filter="url(#fn6fy7tkzhb0k)" height="60.8047" id="PhysicsBodyFactory" style="stroke:#A80036;stroke-width:1.5;" width="283" x="356" y="13.5"/><ellipse cx="432.25" cy="29.5" fill="#ADD1B2" rx="11" ry="11" style="stroke:#A80036;stroke-width:1.0;"/><path d="M435.2188,35.1406 Q434.6406,35.4375 434,35.5781 Q433.3594,35.7344 432.6563,35.7344 Q430.1563,35.7344 428.8281,34.0938 Q427.5156,32.4375 427.5156,29.3125 Q427.5156,26.1875 428.8281,24.5313 Q430.1563,22.875 432.6563,22.875 Q433.3594,22.875 434,23.0313 Q434.6563,23.1875 435.2188,23.4844 L435.2188,26.2031 Q434.5938,25.625 434,25.3594 Q433.4063,25.0781 432.7813,25.0781 Q431.4375,25.0781 430.75,26.1563 Q430.0625,27.2188 430.0625,29.3125 Q430.0625,31.4063 430.75,32.4844 Q431.4375,33.5469 432.7813,33.5469 Q433.4063,33.5469 434,33.2813 Q434.5938,33 435.2188,32.4219 L435.2188,35.1406 Z " fill="#000000"/><text fill="#000000" font-family="sans-serif" font-size="12" lengthAdjust="spacing" textLength="122" x="452.75" y="33.6543">PhysicsBodyFactory</text><line style="stroke:#A80036;stroke-width:1.5;" x1="357" x2="638" y1="45.5" y2="45.5"/><line style="stroke:#A80036;stroke-width:1.5;" x1="357" x2="638" y1="53.5" y2="53.5"/><text fill="#000000" font-family="sans-serif" font-size="11" lengthAdjust="spacing" text-decoration="underline" textLength="271" x="362" y="67.7104">btRigidBody *create(const G3D::PhysicsEntity *)</text><!--MD5=[fd611b362e9df0351befafe8554ff159]
class GhostObjectFactory--><rect codeLine="14" fill="#FEFECE" filter="url(#fn6fy7tkzhb0k)" height="60.8047" id="GhostObjectFactory" style="stroke:#A80036;stroke-width:1.5;" width="289" x="1019" y="147.5"/><ellipse cx="1097.75" cy="163.5" fill="#ADD1B2" rx="11" ry="11" style="stroke:#A80036;stroke-width:1.0;"/><path d="M1100.7188,169.1406 Q1100.1406,169.4375 1099.5,169.5781 Q1098.8594,169.7344 1098.1563,169.7344 Q1095.6563,169.7344 1094.3281,168.0938 Q1093.0156,166.4375 1093.0156,163.3125 Q1093.0156,160.1875 1094.3281,158.5313 Q1095.6563,156.875 1098.1563,156.875 Q1098.8594,156.875 1099.5,157.0313 Q1100.1563,157.1875 1100.7188,157.4844 L1100.7188,160.2031 Q1100.0938,159.625 1099.5,159.3594 Q1098.9063,159.0781 1098.2813,159.0781 Q1096.9375,159.0781 1096.25,160.1563 Q1095.5625,161.2188 1095.5625,163.3125 Q1095.5625,165.4063 1096.25,166.4844 Q1096.9375,167.5469 1098.2813,167.5469 Q1098.9063,167.5469 1099.5,167.2813 Q1100.0938,167 1100.7188,166.4219 L1100.7188,169.1406 Z " fill="#000000"/><text fill="#000000" font-family="sans-serif" font-size="12" lengthAdjust="spacing" textLength="123" x="1118.25" y="167.6543">GhostObjectFactory</text><line style="stroke:#A80036;stroke-width:1.5;" x1="1020" x2="1307" y1="179.5" y2="179.5"/><line style="stroke:#A80036;stroke-width:1.5;" x1="1020" x2="1307" y1="187.5" y2="187.5"/><text fill="#000000" font-family="sans-serif" font-size="11" lengthAdjust="spacing" text-decoration="underline" textLength="277" x="1025" y="201.7104">btGhostObject *create(const G3D::GhostEntity *)</text><!--MD5=[797552d2cd4a866700fc195419467a22]
class DataFactory--><rect codeLine="18" fill="#FEFECE" filter="url(#fn6fy7tkzhb0k)" height="73.6094" id="DataFactory" style="stroke:#A80036;stroke-width:1.5;" width="212" x="674.5" y="7"/><ellipse cx="738.25" cy="23" fill="#ADD1B2" rx="11" ry="11" style="stroke:#A80036;stroke-width:1.0;"/><path d="M741.2188,28.6406 Q740.6406,28.9375 740,29.0781 Q739.3594,29.2344 738.6563,29.2344 Q736.1563,29.2344 734.8281,27.5938 Q733.5156,25.9375 733.5156,22.8125 Q733.5156,19.6875 734.8281,18.0313 Q736.1563,16.375 738.6563,16.375 Q739.3594,16.375 740,16.5313 Q740.6563,16.6875 741.2188,16.9844 L741.2188,19.7031 Q740.5938,19.125 740,18.8594 Q739.4063,18.5781 738.7813,18.5781 Q737.4375,18.5781 736.75,19.6563 Q736.0625,20.7188 736.0625,22.8125 Q736.0625,24.9063 736.75,25.9844 Q737.4375,27.0469 738.7813,27.0469 Q739.4063,27.0469 740,26.7813 Q740.5938,26.5 741.2188,25.9219 L741.2188,28.6406 Z " fill="#000000"/><text fill="#000000" font-family="sans-serif" font-size="12" lengthAdjust="spacing" textLength="76" x="758.75" y="27.1543">DataFactory</text><line style="stroke:#A80036;stroke-width:1.5;" x1="675.5" x2="885.5" y1="39" y2="39"/><line style="stroke:#A80036;stroke-width:1.5;" x1="675.5" x2="885.5" y1="47" y2="47"/><text fill="#000000" font-family="sans-serif" font-size="11" lengthAdjust="spacing" text-decoration="underline" textLength="200" x="680.5" y="61.2104">const inline ED convert(const GD&amp;)</text><text fill="#000000" font-family="sans-serif" font-size="11" lengthAdjust="spacing" text-decoration="underline" textLength="200" x="680.5" y="74.0151">const inline GD convert(const ED&amp;)</text><!--MD5=[678ba86161b65c93147b2a3a8cf02be2]
class Frame--><rect codeLine="23" fill="#FEFECE" filter="url(#fn6fy7tkzhb0k)" height="73.6094" id="Frame" style="stroke:#A80036;stroke-width:1.5;" width="347" x="7" y="141"/><ellipse cx="156.75" cy="157" fill="#ADD1B2" rx="11" ry="11" style="stroke:#A80036;stroke-width:1.0;"/><path d="M159.7188,162.6406 Q159.1406,162.9375 158.5,163.0781 Q157.8594,163.2344 157.1563,163.2344 Q154.6563,163.2344 153.3281,161.5938 Q152.0156,159.9375 152.0156,156.8125 Q152.0156,153.6875 153.3281,152.0313 Q154.6563,150.375 157.1563,150.375 Q157.8594,150.375 158.5,150.5313 Q159.1563,150.6875 159.7188,150.9844 L159.7188,153.7031 Q159.0938,153.125 158.5,152.8594 Q157.9063,152.5781 157.2813,152.5781 Q155.9375,152.5781 155.25,153.6563 Q154.5625,154.7188 154.5625,156.8125 Q154.5625,158.9063 155.25,159.9844 Q155.9375,161.0469 157.2813,161.0469 Q157.9063,161.0469 158.5,160.7813 Q159.0938,160.5 159.7188,159.9219 L159.7188,162.6406 Z " fill="#000000"/><text fill="#000000" font-family="sans-serif" font-size="12" lengthAdjust="spacing" textLength="39" x="177.25" y="161.1543">Frame</text><line style="stroke:#A80036;stroke-width:1.5;" x1="8" x2="353" y1="173" y2="173"/><line style="stroke:#A80036;stroke-width:1.5;" x1="8" x2="353" y1="181" y2="181"/><text fill="#000000" font-family="sans-serif" font-size="11" lengthAdjust="spacing" text-decoration="underline" textLength="335" x="13" y="195.2104">const btTransform convert(const G3D::CoordinateFrame&amp;)</text><text fill="#000000" font-family="sans-serif" font-size="11" lengthAdjust="spacing" text-decoration="underline" textLength="335" x="13" y="208.0151">const G3D::CoordinateFrame convert(const btTransform&amp;)</text><!--MD5=[56f3777c4a342cd8020ffcf5f59f8034]
class Matrix--><rect codeLine="28" fill="#FEFECE" filter="url(#fn6fy7tkzhb0k)" height="73.6094" id="Matrix" style="stroke:#A80036;stroke-width:1.5;" width="284" x="389.5" y="141"/><ellipse cx="508.75" cy="157" fill="#ADD1B2" rx="11" ry="11" style="stroke:#A80036;stroke-width:1.0;"/><path d="M511.7188,162.6406 Q511.1406,162.9375 510.5,163.0781 Q509.8594,163.2344 509.1563,163.2344 Q506.6563,163.2344 505.3281,161.5938 Q504.0156,159.9375 504.0156,156.8125 Q504.0156,153.6875 505.3281,152.0313 Q506.6563,150.375 509.1563,150.375 Q509.8594,150.375 510.5,150.5313 Q511.1563,150.6875 511.7188,150.9844 L511.7188,153.7031 Q511.0938,153.125 510.5,152.8594 Q509.9063,152.5781 509.2813,152.5781 Q507.9375,152.5781 507.25,153.6563 Q506.5625,154.7188 506.5625,156.8125 Q506.5625,158.9063 507.25,159.9844 Q507.9375,161.0469 509.2813,161.0469 Q509.9063,161.0469 510.5,160.7813 Q511.0938,160.5 511.7188,159.9219 L511.7188,162.6406 Z " fill="#000000"/><text fill="#000000" font-family="sans-serif" font-size="12" lengthAdjust="spacing" textLength="37" x="529.25" y="161.1543">Matrix</text><line style="stroke:#A80036;stroke-width:1.5;" x1="390.5" x2="672.5" y1="173" y2="173"/><line style="stroke:#A80036;stroke-width:1.5;" x1="390.5" x2="672.5" y1="181" y2="181"/><text fill="#000000" font-family="sans-serif" font-size="11" lengthAdjust="spacing" text-decoration="underline" textLength="272" x="395.5" y="195.2104">const btMatrix3x3 convert(const G3D::Matrix3&amp;)</text><text fill="#000000" font-family="sans-serif" font-size="11" lengthAdjust="spacing" text-decoration="underline" textLength="272" x="395.5" y="208.0151">const G3D::Matrix3 convert(const btMatrix3x3&amp;)</text><!--MD5=[ea775af43a0da7cb543d6bee4ab62c40]
class Vector--><rect codeLine="33" fill="#FEFECE" filter="url(#fn6fy7tkzhb0k)" height="73.6094" id="Vector" style="stroke:#A80036;stroke-width:1.5;" width="275" x="709" y="141"/><ellipse cx="821.75" cy="157" fill="#ADD1B2" rx="11" ry="11" style="stroke:#A80036;stroke-width:1.0;"/><path d="M824.7188,162.6406 Q824.1406,162.9375 823.5,163.0781 Q822.8594,163.2344 822.1563,163.2344 Q819.6563,163.2344 818.3281,161.5938 Q817.0156,159.9375 817.0156,156.8125 Q817.0156,153.6875 818.3281,152.0313 Q819.6563,150.375 822.1563,150.375 Q822.8594,150.375 823.5,150.5313 Q824.1563,150.6875 824.7188,150.9844 L824.7188,153.7031 Q824.0938,153.125 823.5,152.8594 Q822.9063,152.5781 822.2813,152.5781 Q820.9375,152.5781 820.25,153.6563 Q819.5625,154.7188 819.5625,156.8125 Q819.5625,158.9063 820.25,159.9844 Q820.9375,161.0469 822.2813,161.0469 Q822.9063,161.0469 823.5,160.7813 Q824.0938,160.5 824.7188,159.9219 L824.7188,162.6406 Z " fill="#000000"/><text fill="#000000" font-family="sans-serif" font-size="12" lengthAdjust="spacing" textLength="41" x="842.25" y="161.1543">Vector</text><line style="stroke:#A80036;stroke-width:1.5;" x1="710" x2="983" y1="173" y2="173"/><line style="stroke:#A80036;stroke-width:1.5;" x1="710" x2="983" y1="181" y2="181"/><text fill="#000000" font-family="sans-serif" font-size="11" lengthAdjust="spacing" text-decoration="underline" textLength="263" x="715" y="195.2104">const btVector3 convert(const G3D::Vector3&amp;)</text><text fill="#000000" font-family="sans-serif" font-size="11" lengthAdjust="spacing" text-decoration="underline" textLength="263" x="715" y="208.0151">const G3D::Vector3 convert(const btVector3&amp;)</text><!--MD5=[7d3faf7a74a422cc014fdbf594a2e965]
reverse link CollisionFactory to GhostObjectFactory--><path codeLine="38" d="M1163.5,94.73 C1163.5,112.5 1163.5,131.95 1163.5,147.48 " fill="none" id="CollisionFactory-backto-GhostObjectFactory" style="stroke:#A80036;stroke-width:1.0;"/><polygon fill="none" points="1156.5,94.62,1163.5,74.62,1170.5,94.62,1156.5,94.62" style="stroke:#A80036;stroke-width:1.0;"/><!--MD5=[c72bb7d213cefb49e7657fd3ba542349]
link CollisionShapeFactory to PhysicsBodyFactory--><!--MD5=[2f8e84c620afb866fd52f25a19f60555]
link PhysicsBodyFactory to DataFactory--><!--MD5=[b9496a76e40163c6ad2ac6aebf6ef8f4]
link CollisionShapeFactory to Frame--><!--MD5=[2d2e0eb09930412f9a4ff14f4f5f8a8c]
link Frame to Matrix--><!--MD5=[160ce817a23dc5b12fbd92897e50a5cb]
link Matrix to Vector--><!--MD5=[c8815c88cb28481f673488188934cb01]
@startuml

class CollisionFactory {
    {static} EO *create(const GO *)
}

class CollisionShapeFactory {
    {static} btCollisionShape *create(const G3D::AShape *)
}

class PhysicsBodyFactory {
    {static} btRigidBody *create(const G3D::PhysicsEntity *)
}

class GhostObjectFactory {
    {static} btGhostObject *create(const G3D::GhostEntity *)
}

class DataFactory {
    {static} const inline ED convert(const GD&)
    {static} const inline GD convert(const ED&)
}

class Frame {
    {static} const btTransform convert(const G3D::CoordinateFrame&)
    {static} const G3D::CoordinateFrame convert(const btTransform&)
}

class Matrix  {
    {static} const btMatrix3x3 convert(const G3D::Matrix3&)
    {static} const G3D::Matrix3 convert(const btMatrix3x3&)
}

class Vector {
    {static} const btVector3 convert(const G3D::Vector3&)
    {static} const G3D::Vector3 convert(const btVector3&)
}

CollisionFactory <|- - GhostObjectFactory
      
@enduml

PlantUML version 1.2021.00(Sun Jan 10 15:55:05 IST 2021)
(GPL source distribution)
Java Runtime: OpenJDK Runtime Environment
JVM: OpenJDK 64-Bit Server VM
Default Encoding: ANSI_X3.4-1968
Language: en
Country: US
--></g></svg>