<?xml version="1.0" encoding="UTF-8" standalone="no"?><svg xmlns="http://www.w3.org/2000/svg" xmlns:xlink="http://www.w3.org/1999/xlink" contentScriptType="application/ecmascript" contentStyleType="text/css" height="470px" preserveAspectRatio="none" style="width:1011px;height:470px;" version="1.1" viewBox="0 0 1011 470" width="1011px" zoomAndPan="magnify"><defs><filter height="300%" id="f12i8wyt94i88b" width="300%" x="-1" y="-1"><feGaussianBlur result="blurOut" stdDeviation="2.0"/><feColorMatrix in="blurOut" result="blurOut2" type="matrix" values="0 0 0 0 0 0 0 0 0 0 0 0 0 0 0 0 0 0 .4 0"/><feOffset dx="4.0" dy="4.0" in="blurOut2" result="blurOut3"/><feBlend in="SourceGraphic" in2="blurOut3" mode="normal"/></filter></defs><g><!--MD5=[819d6ec098e7107626c5e1444f9f44c4]
class CollisionFactory--><rect codeLine="2" fill="#FEFECE" filter="url(#f12i8wyt94i88b)" height="60.8047" id="CollisionFactory" style="stroke:#A80036;stroke-width:1.5;" width="145" x="459" y="275"/><ellipse cx="481.2" cy="291" fill="#ADD1B2" rx="11" ry="11" style="stroke:#A80036;stroke-width:1.0;"/><path d="M484.1688,296.6406 Q483.5906,296.9375 482.95,297.0781 Q482.3094,297.2344 481.6063,297.2344 Q479.1063,297.2344 477.7781,295.5938 Q476.4656,293.9375 476.4656,290.8125 Q476.4656,287.6875 477.7781,286.0313 Q479.1063,284.375 481.6063,284.375 Q482.3094,284.375 482.95,284.5313 Q483.6063,284.6875 484.1688,284.9844 L484.1688,287.7031 Q483.5438,287.125 482.95,286.8594 Q482.3563,286.5781 481.7313,286.5781 Q480.3875,286.5781 479.7,287.6563 Q479.0125,288.7188 479.0125,290.8125 Q479.0125,292.9063 479.7,293.9844 Q480.3875,295.0469 481.7313,295.0469 Q482.3563,295.0469 482.95,294.7813 Q483.5438,294.5 484.1688,293.9219 L484.1688,296.6406 Z " fill="#000000"/><text fill="#000000" font-family="sans-serif" font-size="12" lengthAdjust="spacing" textLength="97" x="496.8" y="295.1543">CollisionFactory</text><line style="stroke:#A80036;stroke-width:1.5;" x1="460" x2="603" y1="307" y2="307"/><line style="stroke:#A80036;stroke-width:1.5;" x1="460" x2="603" y1="315" y2="315"/><text fill="#000000" font-family="sans-serif" font-size="11" lengthAdjust="spacing" text-decoration="underline" textLength="133" x="465" y="329.2104">EO *create(const GO *)</text><!--MD5=[348da535070284c58c99d2a0d4bef6d6]
class CollisionShapeFactory--><rect codeLine="6" fill="#FEFECE" filter="url(#f12i8wyt94i88b)" height="60.8047" id="CollisionShapeFactory" style="stroke:#A80036;stroke-width:1.5;" width="281" x="74" y="396"/><ellipse cx="141.75" cy="412" fill="#ADD1B2" rx="11" ry="11" style="stroke:#A80036;stroke-width:1.0;"/><path d="M144.7188,417.6406 Q144.1406,417.9375 143.5,418.0781 Q142.8594,418.2344 142.1563,418.2344 Q139.6563,418.2344 138.3281,416.5938 Q137.0156,414.9375 137.0156,411.8125 Q137.0156,408.6875 138.3281,407.0313 Q139.6563,405.375 142.1563,405.375 Q142.8594,405.375 143.5,405.5313 Q144.1563,405.6875 144.7188,405.9844 L144.7188,408.7031 Q144.0938,408.125 143.5,407.8594 Q142.9063,407.5781 142.2813,407.5781 Q140.9375,407.5781 140.25,408.6563 Q139.5625,409.7188 139.5625,411.8125 Q139.5625,413.9063 140.25,414.9844 Q140.9375,416.0469 142.2813,416.0469 Q142.9063,416.0469 143.5,415.7813 Q144.0938,415.5 144.7188,414.9219 L144.7188,417.6406 Z " fill="#000000"/><text fill="#000000" font-family="sans-serif" font-size="12" lengthAdjust="spacing" textLength="137" x="162.25" y="416.1543">CollisionShapeFactory</text><line style="stroke:#A80036;stroke-width:1.5;" x1="75" x2="354" y1="428" y2="428"/><line style="stroke:#A80036;stroke-width:1.5;" x1="75" x2="354" y1="436" y2="436"/><text fill="#000000" font-family="sans-serif" font-size="11" lengthAdjust="spacing" text-decoration="underline" textLength="269" x="80" y="450.2104">btCollisionShape *create(const G3D::AShape *)</text><!--MD5=[3074bec4ad01d4da007fb48723fac290]
class PhysicsBodyFactory--><rect codeLine="10" fill="#FEFECE" filter="url(#f12i8wyt94i88b)" height="60.8047" id="PhysicsBodyFactory" style="stroke:#A80036;stroke-width:1.5;" width="283" x="390" y="396"/><ellipse cx="466.25" cy="412" fill="#ADD1B2" rx="11" ry="11" style="stroke:#A80036;stroke-width:1.0;"/><path d="M469.2188,417.6406 Q468.6406,417.9375 468,418.0781 Q467.3594,418.2344 466.6563,418.2344 Q464.1563,418.2344 462.8281,416.5938 Q461.5156,414.9375 461.5156,411.8125 Q461.5156,408.6875 462.8281,407.0313 Q464.1563,405.375 466.6563,405.375 Q467.3594,405.375 468,405.5313 Q468.6563,405.6875 469.2188,405.9844 L469.2188,408.7031 Q468.5938,408.125 468,407.8594 Q467.4063,407.5781 466.7813,407.5781 Q465.4375,407.5781 464.75,408.6563 Q464.0625,409.7188 464.0625,411.8125 Q464.0625,413.9063 464.75,414.9844 Q465.4375,416.0469 466.7813,416.0469 Q467.4063,416.0469 468,415.7813 Q468.5938,415.5 469.2188,414.9219 L469.2188,417.6406 Z " fill="#000000"/><text fill="#000000" font-family="sans-serif" font-size="12" lengthAdjust="spacing" textLength="122" x="486.75" y="416.1543">PhysicsBodyFactory</text><line style="stroke:#A80036;stroke-width:1.5;" x1="391" x2="672" y1="428" y2="428"/><line style="stroke:#A80036;stroke-width:1.5;" x1="391" x2="672" y1="436" y2="436"/><text fill="#000000" font-family="sans-serif" font-size="11" lengthAdjust="spacing" text-decoration="underline" textLength="271" x="396" y="450.2104">btRigidBody *create(const G3D::PhysicsEntity *)</text><!--MD5=[fd611b362e9df0351befafe8554ff159]
class GhostObjectFactory--><rect codeLine="14" fill="#FEFECE" filter="url(#f12i8wyt94i88b)" height="60.8047" id="GhostObjectFactory" style="stroke:#A80036;stroke-width:1.5;" width="289" x="708" y="396"/><ellipse cx="786.75" cy="412" fill="#ADD1B2" rx="11" ry="11" style="stroke:#A80036;stroke-width:1.0;"/><path d="M789.7188,417.6406 Q789.1406,417.9375 788.5,418.0781 Q787.8594,418.2344 787.1563,418.2344 Q784.6563,418.2344 783.3281,416.5938 Q782.0156,414.9375 782.0156,411.8125 Q782.0156,408.6875 783.3281,407.0313 Q784.6563,405.375 787.1563,405.375 Q787.8594,405.375 788.5,405.5313 Q789.1563,405.6875 789.7188,405.9844 L789.7188,408.7031 Q789.0938,408.125 788.5,407.8594 Q787.9063,407.5781 787.2813,407.5781 Q785.9375,407.5781 785.25,408.6563 Q784.5625,409.7188 784.5625,411.8125 Q784.5625,413.9063 785.25,414.9844 Q785.9375,416.0469 787.2813,416.0469 Q787.9063,416.0469 788.5,415.7813 Q789.0938,415.5 789.7188,414.9219 L789.7188,417.6406 Z " fill="#000000"/><text fill="#000000" font-family="sans-serif" font-size="12" lengthAdjust="spacing" textLength="123" x="807.25" y="416.1543">GhostObjectFactory</text><line style="stroke:#A80036;stroke-width:1.5;" x1="709" x2="996" y1="428" y2="428"/><line style="stroke:#A80036;stroke-width:1.5;" x1="709" x2="996" y1="436" y2="436"/><text fill="#000000" font-family="sans-serif" font-size="11" lengthAdjust="spacing" text-decoration="underline" textLength="277" x="714" y="450.2104">btGhostObject *create(const G3D::GhostEntity *)</text><!--MD5=[797552d2cd4a866700fc195419467a22]
class DataFactory--><rect codeLine="18" fill="#FEFECE" filter="url(#f12i8wyt94i88b)" height="73.6094" id="DataFactory" style="stroke:#A80036;stroke-width:1.5;" width="212" x="425.5" y="7"/><ellipse cx="489.25" cy="23" fill="#ADD1B2" rx="11" ry="11" style="stroke:#A80036;stroke-width:1.0;"/><path d="M492.2188,28.6406 Q491.6406,28.9375 491,29.0781 Q490.3594,29.2344 489.6563,29.2344 Q487.1563,29.2344 485.8281,27.5938 Q484.5156,25.9375 484.5156,22.8125 Q484.5156,19.6875 485.8281,18.0313 Q487.1563,16.375 489.6563,16.375 Q490.3594,16.375 491,16.5313 Q491.6563,16.6875 492.2188,16.9844 L492.2188,19.7031 Q491.5938,19.125 491,18.8594 Q490.4063,18.5781 489.7813,18.5781 Q488.4375,18.5781 487.75,19.6563 Q487.0625,20.7188 487.0625,22.8125 Q487.0625,24.9063 487.75,25.9844 Q488.4375,27.0469 489.7813,27.0469 Q490.4063,27.0469 491,26.7813 Q491.5938,26.5 492.2188,25.9219 L492.2188,28.6406 Z " fill="#000000"/><text fill="#000000" font-family="sans-serif" font-size="12" lengthAdjust="spacing" textLength="76" x="509.75" y="27.1543">DataFactory</text><line style="stroke:#A80036;stroke-width:1.5;" x1="426.5" x2="636.5" y1="39" y2="39"/><line style="stroke:#A80036;stroke-width:1.5;" x1="426.5" x2="636.5" y1="47" y2="47"/><text fill="#000000" font-family="sans-serif" font-size="11" lengthAdjust="spacing" text-decoration="underline" textLength="200" x="431.5" y="61.2104">const inline ED convert(const GD&amp;)</text><text fill="#000000" font-family="sans-serif" font-size="11" lengthAdjust="spacing" text-decoration="underline" textLength="200" x="431.5" y="74.0151">const inline GD convert(const ED&amp;)</text><!--MD5=[678ba86161b65c93147b2a3a8cf02be2]
class Frame--><rect codeLine="23" fill="#FEFECE" filter="url(#f12i8wyt94i88b)" height="73.6094" id="Frame" style="stroke:#A80036;stroke-width:1.5;" width="347" x="7" y="141"/><ellipse cx="156.75" cy="157" fill="#ADD1B2" rx="11" ry="11" style="stroke:#A80036;stroke-width:1.0;"/><path d="M159.7188,162.6406 Q159.1406,162.9375 158.5,163.0781 Q157.8594,163.2344 157.1563,163.2344 Q154.6563,163.2344 153.3281,161.5938 Q152.0156,159.9375 152.0156,156.8125 Q152.0156,153.6875 153.3281,152.0313 Q154.6563,150.375 157.1563,150.375 Q157.8594,150.375 158.5,150.5313 Q159.1563,150.6875 159.7188,150.9844 L159.7188,153.7031 Q159.0938,153.125 158.5,152.8594 Q157.9063,152.5781 157.2813,152.5781 Q155.9375,152.5781 155.25,153.6563 Q154.5625,154.7188 154.5625,156.8125 Q154.5625,158.9063 155.25,159.9844 Q155.9375,161.0469 157.2813,161.0469 Q157.9063,161.0469 158.5,160.7813 Q159.0938,160.5 159.7188,159.9219 L159.7188,162.6406 Z " fill="#000000"/><text fill="#000000" font-family="sans-serif" font-size="12" lengthAdjust="spacing" textLength="39" x="177.25" y="161.1543">Frame</text><line style="stroke:#A80036;stroke-width:1.5;" x1="8" x2="353" y1="173" y2="173"/><line style="stroke:#A80036;stroke-width:1.5;" x1="8" x2="353" y1="181" y2="181"/><text fill="#000000" font-family="sans-serif" font-size="11" lengthAdjust="spacing" text-decoration="underline" textLength="335" x="13" y="195.2104">const btTransform convert(const G3D::CoordinateFrame&amp;)</text><text fill="#000000" font-family="sans-serif" font-size="11" lengthAdjust="spacing" text-decoration="underline" textLength="335" x="13" y="208.0151">const G3D::CoordinateFrame convert(const btTransform&amp;)</text><!--MD5=[56f3777c4a342cd8020ffcf5f59f8034]
class Matrix--><rect codeLine="28" fill="#FEFECE" filter="url(#f12i8wyt94i88b)" height="73.6094" id="Matrix" style="stroke:#A80036;stroke-width:1.5;" width="284" x="389.5" y="141"/><ellipse cx="508.75" cy="157" fill="#ADD1B2" rx="11" ry="11" style="stroke:#A80036;stroke-width:1.0;"/><path d="M511.7188,162.6406 Q511.1406,162.9375 510.5,163.0781 Q509.8594,163.2344 509.1563,163.2344 Q506.6563,163.2344 505.3281,161.5938 Q504.0156,159.9375 504.0156,156.8125 Q504.0156,153.6875 505.3281,152.0313 Q506.6563,150.375 509.1563,150.375 Q509.8594,150.375 510.5,150.5313 Q511.1563,150.6875 511.7188,150.9844 L511.7188,153.7031 Q511.0938,153.125 510.5,152.8594 Q509.9063,152.5781 509.2813,152.5781 Q507.9375,152.5781 507.25,153.6563 Q506.5625,154.7188 506.5625,156.8125 Q506.5625,158.9063 507.25,159.9844 Q507.9375,161.0469 509.2813,161.0469 Q509.9063,161.0469 510.5,160.7813 Q511.0938,160.5 511.7188,159.9219 L511.7188,162.6406 Z " fill="#000000"/><text fill="#000000" font-family="sans-serif" font-size="12" lengthAdjust="spacing" textLength="37" x="529.25" y="161.1543">Matrix</text><line style="stroke:#A80036;stroke-width:1.5;" x1="390.5" x2="672.5" y1="173" y2="173"/><line style="stroke:#A80036;stroke-width:1.5;" x1="390.5" x2="672.5" y1="181" y2="181"/><text fill="#000000" font-family="sans-serif" font-size="11" lengthAdjust="spacing" text-decoration="underline" textLength="272" x="395.5" y="195.2104">const btMatrix3x3 convert(const G3D::Matrix3&amp;)</text><text fill="#000000" font-family="sans-serif" font-size="11" lengthAdjust="spacing" text-decoration="underline" textLength="272" x="395.5" y="208.0151">const G3D::Matrix3 convert(const btMatrix3x3&amp;)</text><!--MD5=[ea775af43a0da7cb543d6bee4ab62c40]
class Vector--><rect codeLine="33" fill="#FEFECE" filter="url(#f12i8wyt94i88b)" height="73.6094" id="Vector" style="stroke:#A80036;stroke-width:1.5;" width="275" x="709" y="141"/><ellipse cx="821.75" cy="157" fill="#ADD1B2" rx="11" ry="11" style="stroke:#A80036;stroke-width:1.0;"/><path d="M824.7188,162.6406 Q824.1406,162.9375 823.5,163.0781 Q822.8594,163.2344 822.1563,163.2344 Q819.6563,163.2344 818.3281,161.5938 Q817.0156,159.9375 817.0156,156.8125 Q817.0156,153.6875 818.3281,152.0313 Q819.6563,150.375 822.1563,150.375 Q822.8594,150.375 823.5,150.5313 Q824.1563,150.6875 824.7188,150.9844 L824.7188,153.7031 Q824.0938,153.125 823.5,152.8594 Q822.9063,152.5781 822.2813,152.5781 Q820.9375,152.5781 820.25,153.6563 Q819.5625,154.7188 819.5625,156.8125 Q819.5625,158.9063 820.25,159.9844 Q820.9375,161.0469 822.2813,161.0469 Q822.9063,161.0469 823.5,160.7813 Q824.0938,160.5 824.7188,159.9219 L824.7188,162.6406 Z " fill="#000000"/><text fill="#000000" font-family="sans-serif" font-size="12" lengthAdjust="spacing" textLength="41" x="842.25" y="161.1543">Vector</text><line style="stroke:#A80036;stroke-width:1.5;" x1="710" x2="983" y1="173" y2="173"/><line style="stroke:#A80036;stroke-width:1.5;" x1="710" x2="983" y1="181" y2="181"/><text fill="#000000" font-family="sans-serif" font-size="11" lengthAdjust="spacing" text-decoration="underline" textLength="263" x="715" y="195.2104">const btVector3 convert(const G3D::Vector3&amp;)</text><text fill="#000000" font-family="sans-serif" font-size="11" lengthAdjust="spacing" text-decoration="underline" textLength="263" x="715" y="208.0151">const G3D::Vector3 convert(const btVector3&amp;)</text><!--MD5=[58559fe1e086c5b0260a6a9205a13ed9]
reverse link CollisionFactory to CollisionShapeFactory--><path codeLine="38" d="M439.85,340.9 C393.46,358.32 337.71,379.25 293.27,395.93 " fill="none" id="CollisionFactory-backto-CollisionShapeFactory" style="stroke:#A80036;stroke-width:1.0;"/><polygon fill="none" points="437.59,334.28,458.77,333.8,442.51,347.38,437.59,334.28" style="stroke:#A80036;stroke-width:1.0;"/><!--MD5=[b3d77df76d0791237b86cd3ed3986686]
reverse link CollisionFactory to PhysicsBodyFactory--><path codeLine="39" d="M531.5,356.33 C531.5,369.73 531.5,383.81 531.5,395.74 " fill="none" id="CollisionFactory-backto-PhysicsBodyFactory" style="stroke:#A80036;stroke-width:1.0;"/><polygon fill="none" points="524.5,356.22,531.5,336.22,538.5,356.22,524.5,356.22" style="stroke:#A80036;stroke-width:1.0;"/><!--MD5=[7d3faf7a74a422cc014fdbf594a2e965]
reverse link CollisionFactory to GhostObjectFactory--><path codeLine="40" d="M623.25,340.52 C670.5,358.03 727.55,379.18 772.92,396 " fill="none" id="CollisionFactory-backto-GhostObjectFactory" style="stroke:#A80036;stroke-width:1.0;"/><polygon fill="none" points="620.66,347.02,604.34,333.5,625.53,333.89,620.66,347.02" style="stroke:#A80036;stroke-width:1.0;"/><!--MD5=[79e2e7c902911e039f00f55f48e46347]
reverse link DataFactory to Frame--><path codeLine="42" d="M416.86,88.11 C371.4,105.21 319.71,124.65 276.3,140.97 " fill="none" id="DataFactory-backto-Frame" style="stroke:#A80036;stroke-width:1.0;"/><polygon fill="none" points="414.4,81.56,435.59,81.07,419.33,94.66,414.4,81.56" style="stroke:#A80036;stroke-width:1.0;"/><!--MD5=[8e5414c1e77bffbadf1a9312bb2e88c2]
reverse link DataFactory to Matrix--><path codeLine="43" d="M531.5,101.38 C531.5,114.8 531.5,128.76 531.5,140.97 " fill="none" id="DataFactory-backto-Matrix" style="stroke:#A80036;stroke-width:1.0;"/><polygon fill="none" points="524.5,101.07,531.5,81.07,538.5,101.07,524.5,101.07" style="stroke:#A80036;stroke-width:1.0;"/><!--MD5=[9386b61b7b380f7d500643b2244a274c]
reverse link DataFactory to Vector--><path codeLine="44" d="M636.02,88.8 C676.42,105.73 722.08,124.86 760.53,140.97 " fill="none" id="DataFactory-backto-Vector" style="stroke:#A80036;stroke-width:1.0;"/><polygon fill="none" points="633.32,95.26,617.58,81.07,638.73,82.34,633.32,95.26" style="stroke:#A80036;stroke-width:1.0;"/><!--MD5=[b80e8dbf898a80db1e4a8ff152f31107]
link Matrix to CollisionFactory--><!--MD5=[cda2999fa791aa1c2288b9c38060504a]
@startuml

class CollisionFactory {
    {static} EO *create(const GO *)
}

class CollisionShapeFactory {
    {static} btCollisionShape *create(const G3D::AShape *)
}

class PhysicsBodyFactory {
    {static} btRigidBody *create(const G3D::PhysicsEntity *)
}

class GhostObjectFactory {
    {static} btGhostObject *create(const G3D::GhostEntity *)
}

class DataFactory {
    {static} const inline ED convert(const GD&)
    {static} const inline GD convert(const ED&)
}

class Frame {
    {static} const btTransform convert(const G3D::CoordinateFrame&)
    {static} const G3D::CoordinateFrame convert(const btTransform&)
}

class Matrix  {
    {static} const btMatrix3x3 convert(const G3D::Matrix3&)
    {static} const G3D::Matrix3 convert(const btMatrix3x3&)
}

class Vector {
    {static} const btVector3 convert(const G3D::Vector3&)
    {static} const G3D::Vector3 convert(const btVector3&)
}

CollisionFactory <|- - CollisionShapeFactory
CollisionFactory <|- - PhysicsBodyFactory
CollisionFactory <|- - GhostObjectFactory

DataFactory <|- - Frame
DataFactory <|- - Matrix
DataFactory <|- - Vector

Matrix -down[hidden]- CollisionFactory

      
@enduml

PlantUML version 1.2021.00(Sun Jan 10 15:55:05 IST 2021)
(GPL source distribution)
Java Runtime: OpenJDK Runtime Environment
JVM: OpenJDK 64-Bit Server VM
Default Encoding: ANSI_X3.4-1968
Language: en
Country: US
--></g></svg>