<?xml version="1.0" encoding="UTF-8" standalone="no"?><svg xmlns="http://www.w3.org/2000/svg" xmlns:xlink="http://www.w3.org/1999/xlink" contentScriptType="application/ecmascript" contentStyleType="text/css" height="367px" preserveAspectRatio="none" style="width:822px;height:367px;" version="1.1" viewBox="0 0 822 367" width="822px" zoomAndPan="magnify"><defs><filter height="300%" id="f16tamzx607txs" width="300%" x="-1" y="-1"><feGaussianBlur result="blurOut" stdDeviation="2.0"/><feColorMatrix in="blurOut" result="blurOut2" type="matrix" values="0 0 0 0 0 0 0 0 0 0 0 0 0 0 0 0 0 0 .4 0"/><feOffset dx="4.0" dy="4.0" in="blurOut2" result="blurOut3"/><feBlend in="SourceGraphic" in2="blurOut3" mode="normal"/></filter></defs><g><!--MD5=[d23eb5847064fdb27a5121058e9a821d]
class AShape--><rect codeLine="2" fill="#FEFECE" filter="url(#f16tamzx607txs)" height="212.8516" id="AShape" style="stroke:#A80036;stroke-width:1.5;" width="434" x="7" y="7"/><ellipse cx="195.75" cy="23" fill="#ADD1B2" rx="11" ry="11" style="stroke:#A80036;stroke-width:1.0;"/><path d="M198.7188,28.6406 Q198.1406,28.9375 197.5,29.0781 Q196.8594,29.2344 196.1563,29.2344 Q193.6563,29.2344 192.3281,27.5938 Q191.0156,25.9375 191.0156,22.8125 Q191.0156,19.6875 192.3281,18.0313 Q193.6563,16.375 196.1563,16.375 Q196.8594,16.375 197.5,16.5313 Q198.1563,16.6875 198.7188,16.9844 L198.7188,19.7031 Q198.0938,19.125 197.5,18.8594 Q196.9063,18.5781 196.2813,18.5781 Q194.9375,18.5781 194.25,19.6563 Q193.5625,20.7188 193.5625,22.8125 Q193.5625,24.9063 194.25,25.9844 Q194.9375,27.0469 196.2813,27.0469 Q196.9063,27.0469 197.5,26.7813 Q198.0938,26.5 198.7188,25.9219 L198.7188,28.6406 Z " fill="#000000"/><text fill="#000000" font-family="sans-serif" font-size="12" lengthAdjust="spacing" textLength="48" x="216.25" y="27.1543">AShape</text><line style="stroke:#A80036;stroke-width:1.5;" x1="8" x2="440" y1="39" y2="39"/><rect fill="none" height="6" style="stroke:#C82930;stroke-width:1.0;" width="6" x="15" y="47"/><text fill="#000000" font-family="sans-serif" font-size="11" lengthAdjust="spacing" textLength="103" x="27" y="53.2104">String m_anySpec</text><line style="stroke:#A80036;stroke-width:1.0;" x1="8" x2="440" y1="59.8047" y2="59.8047"/><text fill="#000000" font-family="sans-serif" font-size="11" lengthAdjust="spacing" textLength="126" x="13" y="74.0151">shapeSetterCallBack()</text><line style="stroke:#A80036;stroke-width:1.0;stroke-dasharray:1.0,2.0;" x1="8" x2="440" y1="80.6094" y2="80.6094"/><text fill="#000000" font-family="sans-serif" font-size="11" lengthAdjust="spacing" textLength="200" x="13" y="94.8198">auto any = Any::parse(m_anySpec)</text><text fill="#000000" font-family="sans-serif" font-size="11" lengthAdjust="spacing" textLength="102" x="13" y="107.6245">assignShape(any)</text><line style="stroke:#A80036;stroke-width:1.0;" x1="8" x2="440" y1="114.2188" y2="114.2188"/><text fill="#000000" font-family="sans-serif" font-size="11" lengthAdjust="spacing" textLength="320" x="13" y="128.4292">virtual makeGUI(class GuiPane *pane, class GApp *app)</text><line style="stroke:#A80036;stroke-width:1.0;stroke-dasharray:1.0,2.0;" x1="8" x2="440" y1="135.0234" y2="135.0234"/><text fill="#000000" font-family="sans-serif" font-size="11" lengthAdjust="spacing" textLength="105" x="13" y="149.2339">auto any = toAny()</text><text fill="#000000" font-family="sans-serif" font-size="11" lengthAdjust="spacing" textLength="161" x="13" y="162.0386">m_anySpec = any.unparse()</text><text fill="#000000" font-family="sans-serif" font-size="11" lengthAdjust="spacing" textLength="422" x="13" y="174.8433">multiLineTextBox = pane-&gt;addMultiLineTextBox("Any Spec", &amp;m_anySpec)</text><text fill="#000000" font-family="sans-serif" font-size="11" lengthAdjust="spacing" textLength="147" x="13" y="187.6479">pane-&gt;addButton("Apply",</text><text fill="#000000" font-family="sans-serif" font-size="11" lengthAdjust="spacing" textLength="335" x="45" y="200.4526">GuiControl::Callback(this, &amp;AShape::shapeSetterCallBack),</text><text fill="#000000" font-family="sans-serif" font-size="11" lengthAdjust="spacing" textLength="210" x="45" y="213.2573">GuiTheme::NORMAL_BUTTON_STYLE)</text><!--MD5=[3c0854818714436cf6dd8b71d32f6d78]
class PhysicsEntity--><rect codeLine="20" fill="#FEFECE" filter="url(#f16tamzx607txs)" height="137.6328" id="PhysicsEntity" style="stroke:#A80036;stroke-width:1.5;" width="332" x="476" y="44.5"/><ellipse cx="597.25" cy="60.5" fill="#ADD1B2" rx="11" ry="11" style="stroke:#A80036;stroke-width:1.0;"/><path d="M600.2188,66.1406 Q599.6406,66.4375 599,66.5781 Q598.3594,66.7344 597.6563,66.7344 Q595.1563,66.7344 593.8281,65.0938 Q592.5156,63.4375 592.5156,60.3125 Q592.5156,57.1875 593.8281,55.5313 Q595.1563,53.875 597.6563,53.875 Q598.3594,53.875 599,54.0313 Q599.6563,54.1875 600.2188,54.4844 L600.2188,57.2031 Q599.5938,56.625 599,56.3594 Q598.4063,56.0781 597.7813,56.0781 Q596.4375,56.0781 595.75,57.1563 Q595.0625,58.2188 595.0625,60.3125 Q595.0625,62.4063 595.75,63.4844 Q596.4375,64.5469 597.7813,64.5469 Q598.4063,64.5469 599,64.2813 Q599.5938,64 600.2188,63.4219 L600.2188,66.1406 Z " fill="#000000"/><text fill="#000000" font-family="sans-serif" font-size="12" lengthAdjust="spacing" textLength="81" x="617.75" y="64.6543">PhysicsEntity</text><line style="stroke:#A80036;stroke-width:1.5;" x1="477" x2="807" y1="76.5" y2="76.5"/><text fill="#000000" font-family="sans-serif" font-size="11" lengthAdjust="spacing" textLength="320" x="482" y="90.7104">virtual makeGUI(class GuiPane *pane, class GApp *app)</text><line style="stroke:#A80036;stroke-width:1.0;stroke-dasharray:1.0,2.0;" x1="477" x2="807" y1="97.3047" y2="97.3047"/><text fill="#000000" font-family="sans-serif" font-size="11" lengthAdjust="spacing" textLength="192" x="482" y="111.5151">VisibleEntity::makeGUI(pane, app)</text><text fill="#000000" font-family="sans-serif" font-size="11" lengthAdjust="spacing" textLength="215" x="482" y="124.3198">auto tabPane = pane-&gt;addTabPane();</text><text fill="#000000" font-family="sans-serif" font-size="11" lengthAdjust="spacing" textLength="135" x="482" y="137.1245">for (auto it : properties)</text><text fill="#000000" font-family="sans-serif" font-size="11" lengthAdjust="spacing" textLength="182" x="514" y="149.9292">String property = it-&gt;getName()</text><text fill="#000000" font-family="sans-serif" font-size="11" lengthAdjust="spacing" textLength="257" x="514" y="162.7339">auto childPane = tabPane-&gt;addTab(property)</text><text fill="#000000" font-family="sans-serif" font-size="11" lengthAdjust="spacing" textLength="162" x="514" y="175.5386">it-&gt;makeGUI(childPane, app)</text><!--MD5=[9875a7fb4ff870b6e2e25c61edc2e8e0]
class Solid--><rect codeLine="31" fill="#FEFECE" filter="url(#f16tamzx607txs)" height="73.6094" id="Solid" style="stroke:#A80036;stroke-width:1.5;" width="388" x="30" y="280"/><ellipse cx="204.75" cy="296" fill="#ADD1B2" rx="11" ry="11" style="stroke:#A80036;stroke-width:1.0;"/><path d="M207.7188,301.6406 Q207.1406,301.9375 206.5,302.0781 Q205.8594,302.2344 205.1563,302.2344 Q202.6563,302.2344 201.3281,300.5938 Q200.0156,298.9375 200.0156,295.8125 Q200.0156,292.6875 201.3281,291.0313 Q202.6563,289.375 205.1563,289.375 Q205.8594,289.375 206.5,289.5313 Q207.1563,289.6875 207.7188,289.9844 L207.7188,292.7031 Q207.0938,292.125 206.5,291.8594 Q205.9063,291.5781 205.2813,291.5781 Q203.9375,291.5781 203.25,292.6563 Q202.5625,293.7188 202.5625,295.8125 Q202.5625,297.9063 203.25,298.9844 Q203.9375,300.0469 205.2813,300.0469 Q205.9063,300.0469 206.5,299.7813 Q207.0938,299.5 207.7188,298.9219 L207.7188,301.6406 Z " fill="#000000"/><text fill="#000000" font-family="sans-serif" font-size="12" lengthAdjust="spacing" textLength="30" x="225.25" y="300.1543">Solid</text><line style="stroke:#A80036;stroke-width:1.5;" x1="31" x2="417" y1="312" y2="312"/><text fill="#000000" font-family="sans-serif" font-size="11" lengthAdjust="spacing" textLength="252" x="36" y="326.2104">virtual makeGUI(GuiPane* pane, GApp* app)</text><line style="stroke:#A80036;stroke-width:1.0;stroke-dasharray:1.0,2.0;" x1="31" x2="417" y1="332.8047" y2="332.8047"/><text fill="#000000" font-family="sans-serif" font-size="11" lengthAdjust="spacing" textLength="376" x="36" y="347.0151">pane-&gt;addNumberBox&lt;float&gt;("rollingFriction", &amp;m_rollingFriction)</text><!--MD5=[aadc39ae46e8ed36694f0db9845cbb22]
link AShape to PhysicsEntity--><!--MD5=[203bd495700758fbaa4ef57604eb3942]
link AShape to Solid--><!--MD5=[b6cdaa1cfd85846aaa76178f2e0cfe19]
@startuml

class AShape {
    -String m_anySpec
    - -
    shapeSetterCallBack()
    ..
    auto any = Any::parse(m_anySpec)
    assignShape(any)
    - -
    virtual makeGUI(class GuiPane *pane, class GApp *app)
    ..
    auto any = toAny()
    m_anySpec = any.unparse()
    multiLineTextBox = pane->addMultiLineTextBox("Any Spec", &m_anySpec)
    pane->addButton("Apply",
    \tGuiControl::Callback(this, &AShape::shapeSetterCallBack),
    \tGuiTheme::NORMAL_BUTTON_STYLE)
}

class PhysicsEntity {
    virtual makeGUI(class GuiPane *pane, class GApp *app)
    ..
    VisibleEntity::makeGUI(pane, app)
    auto tabPane = pane->addTabPane();
    for (auto it : properties)
    \tString property = it->getName()
    \tauto childPane = tabPane->addTab(property)
    \tit->makeGUI(childPane, app)
}

class Solid {
    virtual makeGUI(GuiPane* pane, GApp* app)
    ..
    pane->addNumberBox<float>("rollingFriction", &m_rollingFriction)
}
      
@enduml

PlantUML version 1.2021.00(Sun Jan 10 15:55:05 IST 2021)
(GPL source distribution)
Java Runtime: OpenJDK Runtime Environment
JVM: OpenJDK 64-Bit Server VM
Default Encoding: ANSI_X3.4-1968
Language: en
Country: US
--></g></svg>