<?xml version="1.0" encoding="UTF-8" standalone="no"?><svg xmlns="http://www.w3.org/2000/svg" xmlns:xlink="http://www.w3.org/1999/xlink" contentScriptType="application/ecmascript" contentStyleType="text/css" height="228px" preserveAspectRatio="none" style="width:450px;height:228px;" version="1.1" viewBox="0 0 450 228" width="450px" zoomAndPan="magnify"><defs><filter height="300%" id="ffhgrm2qgoxs" width="300%" x="-1" y="-1"><feGaussianBlur result="blurOut" stdDeviation="2.0"/><feColorMatrix in="blurOut" result="blurOut2" type="matrix" values="0 0 0 0 0 0 0 0 0 0 0 0 0 0 0 0 0 0 .4 0"/><feOffset dx="4.0" dy="4.0" in="blurOut2" result="blurOut3"/><feBlend in="SourceGraphic" in2="blurOut3" mode="normal"/></filter></defs><g><!--MD5=[3637e2e3ff64f8c7ec072f5df5e3a1dc]
class Expression--><rect codeLine="2" fill="#FEFECE" filter="url(#ffhgrm2qgoxs)" height="60.8047" id="Expression" style="stroke:#A80036;stroke-width:1.5;" width="141" x="151" y="7"/><ellipse cx="184.9" cy="23" fill="#A9DCDF" rx="11" ry="11" style="stroke:#A80036;stroke-width:1.0;"/><path d="M185.0094,18.3438 L183.8531,23.4219 L186.1813,23.4219 L185.0094,18.3438 Z M183.525,16.1094 L186.5094,16.1094 L189.8688,28.5 L187.4156,28.5 L186.65,25.4375 L183.3688,25.4375 L182.6188,28.5 L180.1813,28.5 L183.525,16.1094 Z " fill="#000000"/><text fill="#000000" font-family="sans-serif" font-size="12" font-style="italic" lengthAdjust="spacing" textLength="67" x="203.1" y="27.1543">Expression</text><line style="stroke:#A80036;stroke-width:1.5;" x1="152" x2="291" y1="39" y2="39"/><line style="stroke:#A80036;stroke-width:1.5;" x1="152" x2="291" y1="47" y2="47"/><text fill="#000000" font-family="sans-serif" font-size="11" font-style="italic" lengthAdjust="spacing" textLength="129" x="157" y="61.2104">print(Expression&amp;) = 0</text><!--MD5=[ff3d20c1112759d46dde2fcead238479]
class Value--><rect codeLine="5" fill="#FEFECE" filter="url(#ffhgrm2qgoxs)" height="73.6094" id="Value" style="stroke:#A80036;stroke-width:1.5;" width="119" x="7" y="134"/><ellipse cx="45.4" cy="150" fill="#ADD1B2" rx="11" ry="11" style="stroke:#A80036;stroke-width:1.0;"/><path d="M48.3688,155.6406 Q47.7906,155.9375 47.15,156.0781 Q46.5094,156.2344 45.8063,156.2344 Q43.3063,156.2344 41.9781,154.5938 Q40.6656,152.9375 40.6656,149.8125 Q40.6656,146.6875 41.9781,145.0313 Q43.3063,143.375 45.8063,143.375 Q46.5094,143.375 47.15,143.5313 Q47.8063,143.6875 48.3688,143.9844 L48.3688,146.7031 Q47.7438,146.125 47.15,145.8594 Q46.5563,145.5781 45.9313,145.5781 Q44.5875,145.5781 43.9,146.6563 Q43.2125,147.7188 43.2125,149.8125 Q43.2125,151.9063 43.9,152.9844 Q44.5875,154.0469 45.9313,154.0469 Q46.5563,154.0469 47.15,153.7813 Q47.7438,153.5 48.3688,152.9219 L48.3688,155.6406 Z " fill="#000000"/><text fill="#000000" font-family="sans-serif" font-size="12" lengthAdjust="spacing" textLength="35" x="64.6" y="154.1543">Value</text><line style="stroke:#A80036;stroke-width:1.5;" x1="8" x2="125" y1="166" y2="166"/><rect fill="none" height="6" style="stroke:#C82930;stroke-width:1.0;" width="6" x="15" y="174"/><text fill="#000000" font-family="sans-serif" font-size="11" lengthAdjust="spacing" textLength="48" x="27" y="180.2104">int value</text><line style="stroke:#A80036;stroke-width:1.5;" x1="8" x2="125" y1="186.8047" y2="186.8047"/><text fill="#000000" font-family="sans-serif" font-size="11" lengthAdjust="spacing" textLength="107" x="13" y="201.0151">print(Expression&amp;)</text><!--MD5=[4e916b5516e51ac6308a192ab863475a]
class Addition--><rect codeLine="9" fill="#FEFECE" filter="url(#ffhgrm2qgoxs)" height="86.4141" id="Addition" style="stroke:#A80036;stroke-width:1.5;" width="120" x="161.5" y="128"/><ellipse cx="193.15" cy="144" fill="#ADD1B2" rx="11" ry="11" style="stroke:#A80036;stroke-width:1.0;"/><path d="M196.1188,149.6406 Q195.5406,149.9375 194.9,150.0781 Q194.2594,150.2344 193.5563,150.2344 Q191.0563,150.2344 189.7281,148.5938 Q188.4156,146.9375 188.4156,143.8125 Q188.4156,140.6875 189.7281,139.0313 Q191.0563,137.375 193.5563,137.375 Q194.2594,137.375 194.9,137.5313 Q195.5563,137.6875 196.1188,137.9844 L196.1188,140.7031 Q195.4938,140.125 194.9,139.8594 Q194.3063,139.5781 193.6813,139.5781 Q192.3375,139.5781 191.65,140.6563 Q190.9625,141.7188 190.9625,143.8125 Q190.9625,145.9063 191.65,146.9844 Q192.3375,148.0469 193.6813,148.0469 Q194.3063,148.0469 194.9,147.7813 Q195.4938,147.5 196.1188,146.9219 L196.1188,149.6406 Z " fill="#000000"/><text fill="#000000" font-family="sans-serif" font-size="12" lengthAdjust="spacing" textLength="51" x="210.85" y="148.1543">Addition</text><line style="stroke:#A80036;stroke-width:1.5;" x1="162.5" x2="280.5" y1="160" y2="160"/><rect fill="none" height="6" style="stroke:#C82930;stroke-width:1.0;" width="6" x="169.5" y="168"/><text fill="#000000" font-family="sans-serif" font-size="11" lengthAdjust="spacing" textLength="94" x="181.5" y="174.2104">Expression&amp; lhs</text><rect fill="none" height="6" style="stroke:#C82930;stroke-width:1.0;" width="6" x="169.5" y="180.8047"/><text fill="#000000" font-family="sans-serif" font-size="11" lengthAdjust="spacing" textLength="94" x="181.5" y="187.0151">Expression&amp; lhs</text><line style="stroke:#A80036;stroke-width:1.5;" x1="162.5" x2="280.5" y1="193.6094" y2="193.6094"/><text fill="#000000" font-family="sans-serif" font-size="11" lengthAdjust="spacing" textLength="107" x="167.5" y="207.8198">print(Expression&amp;)</text><!--MD5=[a80aeb25cfca85a61c4213d8f76e28b6]
class Multiplication--><rect codeLine="14" fill="#FEFECE" filter="url(#ffhgrm2qgoxs)" height="86.4141" id="Multiplication" style="stroke:#A80036;stroke-width:1.5;" width="120" x="316.5" y="128"/><ellipse cx="334.2" cy="144" fill="#ADD1B2" rx="11" ry="11" style="stroke:#A80036;stroke-width:1.0;"/><path d="M337.1688,149.6406 Q336.5906,149.9375 335.95,150.0781 Q335.3094,150.2344 334.6063,150.2344 Q332.1063,150.2344 330.7781,148.5938 Q329.4656,146.9375 329.4656,143.8125 Q329.4656,140.6875 330.7781,139.0313 Q332.1063,137.375 334.6063,137.375 Q335.3094,137.375 335.95,137.5313 Q336.6063,137.6875 337.1688,137.9844 L337.1688,140.7031 Q336.5438,140.125 335.95,139.8594 Q335.3563,139.5781 334.7313,139.5781 Q333.3875,139.5781 332.7,140.6563 Q332.0125,141.7188 332.0125,143.8125 Q332.0125,145.9063 332.7,146.9844 Q333.3875,148.0469 334.7313,148.0469 Q335.3563,148.0469 335.95,147.7813 Q336.5438,147.5 337.1688,146.9219 L337.1688,149.6406 Z " fill="#000000"/><text fill="#000000" font-family="sans-serif" font-size="12" lengthAdjust="spacing" textLength="82" x="348.8" y="148.1543">Multiplication</text><line style="stroke:#A80036;stroke-width:1.5;" x1="317.5" x2="435.5" y1="160" y2="160"/><rect fill="none" height="6" style="stroke:#C82930;stroke-width:1.0;" width="6" x="324.5" y="168"/><text fill="#000000" font-family="sans-serif" font-size="11" lengthAdjust="spacing" textLength="94" x="336.5" y="174.2104">Expression&amp; lhs</text><rect fill="none" height="6" style="stroke:#C82930;stroke-width:1.0;" width="6" x="324.5" y="180.8047"/><text fill="#000000" font-family="sans-serif" font-size="11" lengthAdjust="spacing" textLength="94" x="336.5" y="187.0151">Expression&amp; lhs</text><line style="stroke:#A80036;stroke-width:1.5;" x1="317.5" x2="435.5" y1="193.6094" y2="193.6094"/><text fill="#000000" font-family="sans-serif" font-size="11" lengthAdjust="spacing" textLength="107" x="322.5" y="207.8198">print(Expression&amp;)</text><!--MD5=[6b80e7eb9da08f51a279413cdef32010]
reverse link Expression to Value--><path codeLine="20" d="M171.35,81.04 C151.29,98.06 128.43,117.46 109.19,133.79 " fill="none" id="Expression-backto-Value" style="stroke:#A80036;stroke-width:1.0;"/><polygon fill="none" points="166.94,75.61,186.71,68.01,175.99,86.29,166.94,75.61" style="stroke:#A80036;stroke-width:1.0;"/><!--MD5=[345e47141b068175f89006910964ebf2]
reverse link Expression to Addition--><path codeLine="21" d="M221.5,88.14 C221.5,101.23 221.5,115.22 221.5,127.87 " fill="none" id="Expression-backto-Addition" style="stroke:#A80036;stroke-width:1.0;"/><polygon fill="none" points="214.5,88.01,221.5,68.01,228.5,88.01,214.5,88.01" style="stroke:#A80036;stroke-width:1.0;"/><!--MD5=[63c9ce6490a68e64108c49f24a1a31da]
reverse link Expression to Multiplication--><path codeLine="22" d="M271.77,81.14 C289.42,96.12 309.24,112.93 326.84,127.87 " fill="none" id="Expression-backto-Multiplication" style="stroke:#A80036;stroke-width:1.0;"/><polygon fill="none" points="267.01,86.29,256.29,68.01,276.06,75.61,267.01,86.29" style="stroke:#A80036;stroke-width:1.0;"/><!--MD5=[9765e6927193c20d4d7af589f5ffccdc]
@startuml

abstract class Expression {
{abstract} print(Expression&) = 0
}
class Value {
-int value
print(Expression&)
}
class Addition {
-Expression& lhs
-Expression& lhs
print(Expression&)
}
class Multiplication{
-Expression& lhs
-Expression& lhs
print(Expression&)
}

Expression <|- - Value
Expression <|- - Addition
Expression <|- - Multiplication
	
@enduml

PlantUML version 1.2021.00(Sun Jan 10 15:55:05 IST 2021)
(GPL source distribution)
Java Runtime: OpenJDK Runtime Environment
JVM: OpenJDK 64-Bit Server VM
Default Encoding: ANSI_X3.4-1968
Language: en
Country: US
--></g></svg>