<?xml version="1.0" encoding="UTF-8" standalone="no"?><svg xmlns="http://www.w3.org/2000/svg" xmlns:xlink="http://www.w3.org/1999/xlink" contentScriptType="application/ecmascript" contentStyleType="text/css" height="228px" preserveAspectRatio="none" style="width:1640px;height:228px;" version="1.1" viewBox="0 0 1640 228" width="1640px" zoomAndPan="magnify"><defs><filter height="300%" id="fcjnf2gn6yvck" width="300%" x="-1" y="-1"><feGaussianBlur result="blurOut" stdDeviation="2.0"/><feColorMatrix in="blurOut" result="blurOut2" type="matrix" values="0 0 0 0 0 0 0 0 0 0 0 0 0 0 0 0 0 0 .4 0"/><feOffset dx="4.0" dy="4.0" in="blurOut2" result="blurOut3"/><feBlend in="SourceGraphic" in2="blurOut3" mode="normal"/></filter></defs><g><!--MD5=[819d6ec098e7107626c5e1444f9f44c4]
class CollisionFactory--><rect codeLine="2" fill="#FEFECE" filter="url(#fcjnf2gn6yvck)" height="60.8047" id="CollisionFactory" style="stroke:#A80036;stroke-width:1.5;" width="145" x="397" y="13.5"/><ellipse cx="419.2" cy="29.5" fill="#ADD1B2" rx="11" ry="11" style="stroke:#A80036;stroke-width:1.0;"/><path d="M422.1688,35.1406 Q421.5906,35.4375 420.95,35.5781 Q420.3094,35.7344 419.6063,35.7344 Q417.1063,35.7344 415.7781,34.0938 Q414.4656,32.4375 414.4656,29.3125 Q414.4656,26.1875 415.7781,24.5313 Q417.1063,22.875 419.6063,22.875 Q420.3094,22.875 420.95,23.0313 Q421.6063,23.1875 422.1688,23.4844 L422.1688,26.2031 Q421.5438,25.625 420.95,25.3594 Q420.3563,25.0781 419.7313,25.0781 Q418.3875,25.0781 417.7,26.1563 Q417.0125,27.2188 417.0125,29.3125 Q417.0125,31.4063 417.7,32.4844 Q418.3875,33.5469 419.7313,33.5469 Q420.3563,33.5469 420.95,33.2813 Q421.5438,33 422.1688,32.4219 L422.1688,35.1406 Z " fill="#000000"/><text fill="#000000" font-family="sans-serif" font-size="12" lengthAdjust="spacing" textLength="97" x="434.8" y="33.6543">CollisionFactory</text><line style="stroke:#A80036;stroke-width:1.5;" x1="398" x2="541" y1="45.5" y2="45.5"/><line style="stroke:#A80036;stroke-width:1.5;" x1="398" x2="541" y1="53.5" y2="53.5"/><text fill="#000000" font-family="sans-serif" font-size="11" lengthAdjust="spacing" text-decoration="underline" textLength="133" x="403" y="67.7104">EO *create(const GO *)</text><!--MD5=[348da535070284c58c99d2a0d4bef6d6]
class CollisionShapeFactory--><rect codeLine="6" fill="#FEFECE" filter="url(#fcjnf2gn6yvck)" height="60.8047" id="CollisionShapeFactory" style="stroke:#A80036;stroke-width:1.5;" width="281" x="664" y="13.5"/><ellipse cx="731.75" cy="29.5" fill="#ADD1B2" rx="11" ry="11" style="stroke:#A80036;stroke-width:1.0;"/><path d="M734.7188,35.1406 Q734.1406,35.4375 733.5,35.5781 Q732.8594,35.7344 732.1563,35.7344 Q729.6563,35.7344 728.3281,34.0938 Q727.0156,32.4375 727.0156,29.3125 Q727.0156,26.1875 728.3281,24.5313 Q729.6563,22.875 732.1563,22.875 Q732.8594,22.875 733.5,23.0313 Q734.1563,23.1875 734.7188,23.4844 L734.7188,26.2031 Q734.0938,25.625 733.5,25.3594 Q732.9063,25.0781 732.2813,25.0781 Q730.9375,25.0781 730.25,26.1563 Q729.5625,27.2188 729.5625,29.3125 Q729.5625,31.4063 730.25,32.4844 Q730.9375,33.5469 732.2813,33.5469 Q732.9063,33.5469 733.5,33.2813 Q734.0938,33 734.7188,32.4219 L734.7188,35.1406 Z " fill="#000000"/><text fill="#000000" font-family="sans-serif" font-size="12" lengthAdjust="spacing" textLength="137" x="752.25" y="33.6543">CollisionShapeFactory</text><line style="stroke:#A80036;stroke-width:1.5;" x1="665" x2="944" y1="45.5" y2="45.5"/><line style="stroke:#A80036;stroke-width:1.5;" x1="665" x2="944" y1="53.5" y2="53.5"/><text fill="#000000" font-family="sans-serif" font-size="11" lengthAdjust="spacing" text-decoration="underline" textLength="269" x="670" y="67.7104">btCollisionShape *create(const G3D::AShape *)</text><!--MD5=[3074bec4ad01d4da007fb48723fac290]
class PhysicsBodyFactory--><rect codeLine="10" fill="#FEFECE" filter="url(#fcjnf2gn6yvck)" height="60.8047" id="PhysicsBodyFactory" style="stroke:#A80036;stroke-width:1.5;" width="283" x="7" y="147.5"/><ellipse cx="83.25" cy="163.5" fill="#ADD1B2" rx="11" ry="11" style="stroke:#A80036;stroke-width:1.0;"/><path d="M86.2188,169.1406 Q85.6406,169.4375 85,169.5781 Q84.3594,169.7344 83.6563,169.7344 Q81.1563,169.7344 79.8281,168.0938 Q78.5156,166.4375 78.5156,163.3125 Q78.5156,160.1875 79.8281,158.5313 Q81.1563,156.875 83.6563,156.875 Q84.3594,156.875 85,157.0313 Q85.6563,157.1875 86.2188,157.4844 L86.2188,160.2031 Q85.5938,159.625 85,159.3594 Q84.4063,159.0781 83.7813,159.0781 Q82.4375,159.0781 81.75,160.1563 Q81.0625,161.2188 81.0625,163.3125 Q81.0625,165.4063 81.75,166.4844 Q82.4375,167.5469 83.7813,167.5469 Q84.4063,167.5469 85,167.2813 Q85.5938,167 86.2188,166.4219 L86.2188,169.1406 Z " fill="#000000"/><text fill="#000000" font-family="sans-serif" font-size="12" lengthAdjust="spacing" textLength="122" x="103.75" y="167.6543">PhysicsBodyFactory</text><line style="stroke:#A80036;stroke-width:1.5;" x1="8" x2="289" y1="179.5" y2="179.5"/><line style="stroke:#A80036;stroke-width:1.5;" x1="8" x2="289" y1="187.5" y2="187.5"/><text fill="#000000" font-family="sans-serif" font-size="11" lengthAdjust="spacing" text-decoration="underline" textLength="271" x="13" y="201.7104">btRigidBody *create(const G3D::PhysicsEntity *)</text><!--MD5=[fd611b362e9df0351befafe8554ff159]
class GhostObjectFactory--><rect codeLine="14" fill="#FEFECE" filter="url(#fcjnf2gn6yvck)" height="60.8047" id="GhostObjectFactory" style="stroke:#A80036;stroke-width:1.5;" width="289" x="325" y="147.5"/><ellipse cx="403.75" cy="163.5" fill="#ADD1B2" rx="11" ry="11" style="stroke:#A80036;stroke-width:1.0;"/><path d="M406.7188,169.1406 Q406.1406,169.4375 405.5,169.5781 Q404.8594,169.7344 404.1563,169.7344 Q401.6563,169.7344 400.3281,168.0938 Q399.0156,166.4375 399.0156,163.3125 Q399.0156,160.1875 400.3281,158.5313 Q401.6563,156.875 404.1563,156.875 Q404.8594,156.875 405.5,157.0313 Q406.1563,157.1875 406.7188,157.4844 L406.7188,160.2031 Q406.0938,159.625 405.5,159.3594 Q404.9063,159.0781 404.2813,159.0781 Q402.9375,159.0781 402.25,160.1563 Q401.5625,161.2188 401.5625,163.3125 Q401.5625,165.4063 402.25,166.4844 Q402.9375,167.5469 404.2813,167.5469 Q404.9063,167.5469 405.5,167.2813 Q406.0938,167 406.7188,166.4219 L406.7188,169.1406 Z " fill="#000000"/><text fill="#000000" font-family="sans-serif" font-size="12" lengthAdjust="spacing" textLength="123" x="424.25" y="167.6543">GhostObjectFactory</text><line style="stroke:#A80036;stroke-width:1.5;" x1="326" x2="613" y1="179.5" y2="179.5"/><line style="stroke:#A80036;stroke-width:1.5;" x1="326" x2="613" y1="187.5" y2="187.5"/><text fill="#000000" font-family="sans-serif" font-size="11" lengthAdjust="spacing" text-decoration="underline" textLength="277" x="331" y="201.7104">btGhostObject *create(const G3D::GhostEntity *)</text><!--MD5=[797552d2cd4a866700fc195419467a22]
class DataFactory--><rect codeLine="18" fill="#FEFECE" filter="url(#fcjnf2gn6yvck)" height="73.6094" id="DataFactory" style="stroke:#A80036;stroke-width:1.5;" width="212" x="1067.5" y="7"/><ellipse cx="1131.25" cy="23" fill="#ADD1B2" rx="11" ry="11" style="stroke:#A80036;stroke-width:1.0;"/><path d="M1134.2188,28.6406 Q1133.6406,28.9375 1133,29.0781 Q1132.3594,29.2344 1131.6563,29.2344 Q1129.1563,29.2344 1127.8281,27.5938 Q1126.5156,25.9375 1126.5156,22.8125 Q1126.5156,19.6875 1127.8281,18.0313 Q1129.1563,16.375 1131.6563,16.375 Q1132.3594,16.375 1133,16.5313 Q1133.6563,16.6875 1134.2188,16.9844 L1134.2188,19.7031 Q1133.5938,19.125 1133,18.8594 Q1132.4063,18.5781 1131.7813,18.5781 Q1130.4375,18.5781 1129.75,19.6563 Q1129.0625,20.7188 1129.0625,22.8125 Q1129.0625,24.9063 1129.75,25.9844 Q1130.4375,27.0469 1131.7813,27.0469 Q1132.4063,27.0469 1133,26.7813 Q1133.5938,26.5 1134.2188,25.9219 L1134.2188,28.6406 Z " fill="#000000"/><text fill="#000000" font-family="sans-serif" font-size="12" lengthAdjust="spacing" textLength="76" x="1151.75" y="27.1543">DataFactory</text><line style="stroke:#A80036;stroke-width:1.5;" x1="1068.5" x2="1278.5" y1="39" y2="39"/><line style="stroke:#A80036;stroke-width:1.5;" x1="1068.5" x2="1278.5" y1="47" y2="47"/><text fill="#000000" font-family="sans-serif" font-size="11" lengthAdjust="spacing" text-decoration="underline" textLength="200" x="1073.5" y="61.2104">const inline ED convert(const GD&amp;)</text><text fill="#000000" font-family="sans-serif" font-size="11" lengthAdjust="spacing" text-decoration="underline" textLength="200" x="1073.5" y="74.0151">const inline GD convert(const ED&amp;)</text><!--MD5=[678ba86161b65c93147b2a3a8cf02be2]
class Frame--><rect codeLine="23" fill="#FEFECE" filter="url(#fcjnf2gn6yvck)" height="73.6094" id="Frame" style="stroke:#A80036;stroke-width:1.5;" width="347" x="649" y="141"/><ellipse cx="798.75" cy="157" fill="#ADD1B2" rx="11" ry="11" style="stroke:#A80036;stroke-width:1.0;"/><path d="M801.7188,162.6406 Q801.1406,162.9375 800.5,163.0781 Q799.8594,163.2344 799.1563,163.2344 Q796.6563,163.2344 795.3281,161.5938 Q794.0156,159.9375 794.0156,156.8125 Q794.0156,153.6875 795.3281,152.0313 Q796.6563,150.375 799.1563,150.375 Q799.8594,150.375 800.5,150.5313 Q801.1563,150.6875 801.7188,150.9844 L801.7188,153.7031 Q801.0938,153.125 800.5,152.8594 Q799.9063,152.5781 799.2813,152.5781 Q797.9375,152.5781 797.25,153.6563 Q796.5625,154.7188 796.5625,156.8125 Q796.5625,158.9063 797.25,159.9844 Q797.9375,161.0469 799.2813,161.0469 Q799.9063,161.0469 800.5,160.7813 Q801.0938,160.5 801.7188,159.9219 L801.7188,162.6406 Z " fill="#000000"/><text fill="#000000" font-family="sans-serif" font-size="12" lengthAdjust="spacing" textLength="39" x="819.25" y="161.1543">Frame</text><line style="stroke:#A80036;stroke-width:1.5;" x1="650" x2="995" y1="173" y2="173"/><line style="stroke:#A80036;stroke-width:1.5;" x1="650" x2="995" y1="181" y2="181"/><text fill="#000000" font-family="sans-serif" font-size="11" lengthAdjust="spacing" text-decoration="underline" textLength="335" x="655" y="195.2104">const btTransform convert(const G3D::CoordinateFrame&amp;)</text><text fill="#000000" font-family="sans-serif" font-size="11" lengthAdjust="spacing" text-decoration="underline" textLength="335" x="655" y="208.0151">const G3D::CoordinateFrame convert(const btTransform&amp;)</text><!--MD5=[56f3777c4a342cd8020ffcf5f59f8034]
class Matrix--><rect codeLine="28" fill="#FEFECE" filter="url(#fcjnf2gn6yvck)" height="73.6094" id="Matrix" style="stroke:#A80036;stroke-width:1.5;" width="284" x="1031.5" y="141"/><ellipse cx="1150.75" cy="157" fill="#ADD1B2" rx="11" ry="11" style="stroke:#A80036;stroke-width:1.0;"/><path d="M1153.7188,162.6406 Q1153.1406,162.9375 1152.5,163.0781 Q1151.8594,163.2344 1151.1563,163.2344 Q1148.6563,163.2344 1147.3281,161.5938 Q1146.0156,159.9375 1146.0156,156.8125 Q1146.0156,153.6875 1147.3281,152.0313 Q1148.6563,150.375 1151.1563,150.375 Q1151.8594,150.375 1152.5,150.5313 Q1153.1563,150.6875 1153.7188,150.9844 L1153.7188,153.7031 Q1153.0938,153.125 1152.5,152.8594 Q1151.9063,152.5781 1151.2813,152.5781 Q1149.9375,152.5781 1149.25,153.6563 Q1148.5625,154.7188 1148.5625,156.8125 Q1148.5625,158.9063 1149.25,159.9844 Q1149.9375,161.0469 1151.2813,161.0469 Q1151.9063,161.0469 1152.5,160.7813 Q1153.0938,160.5 1153.7188,159.9219 L1153.7188,162.6406 Z " fill="#000000"/><text fill="#000000" font-family="sans-serif" font-size="12" lengthAdjust="spacing" textLength="37" x="1171.25" y="161.1543">Matrix</text><line style="stroke:#A80036;stroke-width:1.5;" x1="1032.5" x2="1314.5" y1="173" y2="173"/><line style="stroke:#A80036;stroke-width:1.5;" x1="1032.5" x2="1314.5" y1="181" y2="181"/><text fill="#000000" font-family="sans-serif" font-size="11" lengthAdjust="spacing" text-decoration="underline" textLength="272" x="1037.5" y="195.2104">const btMatrix3x3 convert(const G3D::Matrix3&amp;)</text><text fill="#000000" font-family="sans-serif" font-size="11" lengthAdjust="spacing" text-decoration="underline" textLength="272" x="1037.5" y="208.0151">const G3D::Matrix3 convert(const btMatrix3x3&amp;)</text><!--MD5=[ea775af43a0da7cb543d6bee4ab62c40]
class Vector--><rect codeLine="33" fill="#FEFECE" filter="url(#fcjnf2gn6yvck)" height="73.6094" id="Vector" style="stroke:#A80036;stroke-width:1.5;" width="275" x="1351" y="141"/><ellipse cx="1463.75" cy="157" fill="#ADD1B2" rx="11" ry="11" style="stroke:#A80036;stroke-width:1.0;"/><path d="M1466.7188,162.6406 Q1466.1406,162.9375 1465.5,163.0781 Q1464.8594,163.2344 1464.1563,163.2344 Q1461.6563,163.2344 1460.3281,161.5938 Q1459.0156,159.9375 1459.0156,156.8125 Q1459.0156,153.6875 1460.3281,152.0313 Q1461.6563,150.375 1464.1563,150.375 Q1464.8594,150.375 1465.5,150.5313 Q1466.1563,150.6875 1466.7188,150.9844 L1466.7188,153.7031 Q1466.0938,153.125 1465.5,152.8594 Q1464.9063,152.5781 1464.2813,152.5781 Q1462.9375,152.5781 1462.25,153.6563 Q1461.5625,154.7188 1461.5625,156.8125 Q1461.5625,158.9063 1462.25,159.9844 Q1462.9375,161.0469 1464.2813,161.0469 Q1464.9063,161.0469 1465.5,160.7813 Q1466.0938,160.5 1466.7188,159.9219 L1466.7188,162.6406 Z " fill="#000000"/><text fill="#000000" font-family="sans-serif" font-size="12" lengthAdjust="spacing" textLength="41" x="1484.25" y="161.1543">Vector</text><line style="stroke:#A80036;stroke-width:1.5;" x1="1352" x2="1625" y1="173" y2="173"/><line style="stroke:#A80036;stroke-width:1.5;" x1="1352" x2="1625" y1="181" y2="181"/><text fill="#000000" font-family="sans-serif" font-size="11" lengthAdjust="spacing" text-decoration="underline" textLength="263" x="1357" y="195.2104">const btVector3 convert(const G3D::Vector3&amp;)</text><text fill="#000000" font-family="sans-serif" font-size="11" lengthAdjust="spacing" text-decoration="underline" textLength="263" x="1357" y="208.0151">const G3D::Vector3 convert(const btVector3&amp;)</text><!--MD5=[7d3faf7a74a422cc014fdbf594a2e965]
reverse link CollisionFactory to GhostObjectFactory--><path codeLine="38" d="M457.1,94.73 C456.32,112.5 456.84,131.95 458.67,147.48 " fill="none" id="CollisionFactory-backto-GhostObjectFactory" style="stroke:#A80036;stroke-width:1.0;"/><polygon fill="none" points="450.13,94.02,458.66,74.62,464.09,95.1,450.13,94.02" style="stroke:#A80036;stroke-width:1.0;"/><!--MD5=[7d3faf7a74a422cc014fdbf594a2e965]
reverse link CollisionFactory to GhostObjectFactory--><path codeLine="40" d="M482.63,94.73 C483.46,112.5 482.9,131.95 480.97,147.48 " fill="none" id="CollisionFactory-backto-GhostObjectFactory-1" style="stroke:#A80036;stroke-width:1.0;"/><polygon fill="none" points="475.64,95.13,480.98,74.62,489.59,93.98,475.64,95.13" style="stroke:#A80036;stroke-width:1.0;"/><!--MD5=[b3d77df76d0791237b86cd3ed3986686]
reverse link CollisionFactory to PhysicsBodyFactory--><path codeLine="39" d="M378.83,82.28 C328.64,102.92 267.13,128.22 220.3,147.48 " fill="none" id="CollisionFactory-backto-PhysicsBodyFactory" style="stroke:#A80036;stroke-width:1.0;"/><polygon fill="none" points="376.3,75.76,397.46,74.62,381.63,88.7,376.3,75.76" style="stroke:#A80036;stroke-width:1.0;"/><!--MD5=[79e2e7c902911e039f00f55f48e46347]
reverse link DataFactory to Frame--><path codeLine="42" d="M1058.86,88.11 C1013.4,105.21 961.71,124.65 918.3,140.97 " fill="none" id="DataFactory-backto-Frame" style="stroke:#A80036;stroke-width:1.0;"/><polygon fill="none" points="1056.4,81.56,1077.59,81.07,1061.33,94.66,1056.4,81.56" style="stroke:#A80036;stroke-width:1.0;"/><!--MD5=[8e5414c1e77bffbadf1a9312bb2e88c2]
reverse link DataFactory to Matrix--><path codeLine="43" d="M1173.5,101.38 C1173.5,114.8 1173.5,128.76 1173.5,140.97 " fill="none" id="DataFactory-backto-Matrix" style="stroke:#A80036;stroke-width:1.0;"/><polygon fill="none" points="1166.5,101.07,1173.5,81.07,1180.5,101.07,1166.5,101.07" style="stroke:#A80036;stroke-width:1.0;"/><!--MD5=[9386b61b7b380f7d500643b2244a274c]
reverse link DataFactory to Vector--><path codeLine="44" d="M1278.02,88.8 C1318.42,105.73 1364.08,124.86 1402.53,140.97 " fill="none" id="DataFactory-backto-Vector" style="stroke:#A80036;stroke-width:1.0;"/><polygon fill="none" points="1275.32,95.26,1259.58,81.07,1280.73,82.34,1275.32,95.26" style="stroke:#A80036;stroke-width:1.0;"/><!--MD5=[0b03996ecdc50e29376b7e768952d215]
@startuml

class CollisionFactory {
    {static} EO *create(const GO *)
}

class CollisionShapeFactory {
    {static} btCollisionShape *create(const G3D::AShape *)
}

class PhysicsBodyFactory {
    {static} btRigidBody *create(const G3D::PhysicsEntity *)
}

class GhostObjectFactory {
    {static} btGhostObject *create(const G3D::GhostEntity *)
}

class DataFactory {
    {static} const inline ED convert(const GD&)
    {static} const inline GD convert(const ED&)
}

class Frame {
    {static} const btTransform convert(const G3D::CoordinateFrame&)
    {static} const G3D::CoordinateFrame convert(const btTransform&)
}

class Matrix  {
    {static} const btMatrix3x3 convert(const G3D::Matrix3&)
    {static} const G3D::Matrix3 convert(const btMatrix3x3&)
}

class Vector {
    {static} const btVector3 convert(const G3D::Vector3&)
    {static} const G3D::Vector3 convert(const btVector3&)
}

CollisionFactory <|- - GhostObjectFactory
CollisionFactory <|- - PhysicsBodyFactory
CollisionFactory <|- - GhostObjectFactory

DataFactory <|- - Frame
DataFactory <|- - Matrix
DataFactory <|- - Vector
      
@enduml

PlantUML version 1.2021.00(Sun Jan 10 15:55:05 IST 2021)
(GPL source distribution)
Java Runtime: OpenJDK Runtime Environment
JVM: OpenJDK 64-Bit Server VM
Default Encoding: ANSI_X3.4-1968
Language: en
Country: US
--></g></svg>