<?xml version="1.0" encoding="UTF-8" standalone="no"?><svg xmlns="http://www.w3.org/2000/svg" xmlns:xlink="http://www.w3.org/1999/xlink" contentScriptType="application/ecmascript" contentStyleType="text/css" height="381px" preserveAspectRatio="none" style="width:1040px;height:381px;" version="1.1" viewBox="0 0 1040 381" width="1040px" zoomAndPan="magnify"><defs><filter height="300%" id="fymp8pwo5x6oe" width="300%" x="-1" y="-1"><feGaussianBlur result="blurOut" stdDeviation="2.0"/><feColorMatrix in="blurOut" result="blurOut2" type="matrix" values="0 0 0 0 0 0 0 0 0 0 0 0 0 0 0 0 0 0 .4 0"/><feOffset dx="4.0" dy="4.0" in="blurOut2" result="blurOut3"/><feBlend in="SourceGraphic" in2="blurOut3" mode="normal"/></filter></defs><g><g id="L"><rect fill="#FEFECE" filter="url(#fymp8pwo5x6oe)" height="50" rx="12.5" ry="12.5" style="stroke:#A80036;stroke-width:1.5;" width="50" x="10" y="68.04"/><line style="stroke:#A80036;stroke-width:1.5;" x1="10" x2="60" y1="94.3369" y2="94.3369"/><text fill="#000000" font-family="sans-serif" font-size="14" lengthAdjust="spacing" textLength="7" x="31.5" y="86.0351">L</text></g><g id="V1"><rect fill="#FEFECE" filter="url(#fymp8pwo5x6oe)" height="50" rx="12.5" ry="12.5" style="stroke:#A80036;stroke-width:1.5;" width="50" x="131" y="68.04"/><line style="stroke:#A80036;stroke-width:1.5;" x1="131" x2="181" y1="94.3369" y2="94.3369"/><text fill="#000000" font-family="sans-serif" font-size="14" lengthAdjust="spacing" textLength="18" x="147" y="86.0351">V1</text></g><g id="V2"><rect fill="#FEFECE" filter="url(#fymp8pwo5x6oe)" height="50" rx="12.5" ry="12.5" style="stroke:#A80036;stroke-width:1.5;" width="50" x="260" y="68.04"/><line style="stroke:#A80036;stroke-width:1.5;" x1="260" x2="310" y1="94.3369" y2="94.3369"/><text fill="#000000" font-family="sans-serif" font-size="14" lengthAdjust="spacing" textLength="18" x="276" y="86.0351">V2</text></g><g id="V3"><rect fill="#FEFECE" filter="url(#fymp8pwo5x6oe)" height="50" rx="12.5" ry="12.5" style="stroke:#A80036;stroke-width:1.5;" width="50" x="397" y="68.04"/><line style="stroke:#A80036;stroke-width:1.5;" x1="397" x2="447" y1="94.3369" y2="94.3369"/><text fill="#000000" font-family="sans-serif" font-size="14" lengthAdjust="spacing" textLength="18" x="413" y="86.0351">V3</text></g><g id="V4"><rect fill="#FEFECE" filter="url(#fymp8pwo5x6oe)" height="50" rx="12.5" ry="12.5" style="stroke:#A80036;stroke-width:1.5;" width="50" x="542" y="68.04"/><line style="stroke:#A80036;stroke-width:1.5;" x1="542" x2="592" y1="94.3369" y2="94.3369"/><text fill="#000000" font-family="sans-serif" font-size="14" lengthAdjust="spacing" textLength="18" x="558" y="86.0351">V4</text></g><g id="V5"><rect fill="#FEFECE" filter="url(#fymp8pwo5x6oe)" height="50" rx="12.5" ry="12.5" style="stroke:#A80036;stroke-width:1.5;" width="50" x="695" y="68.04"/><line style="stroke:#A80036;stroke-width:1.5;" x1="695" x2="745" y1="94.3369" y2="94.3369"/><text fill="#000000" font-family="sans-serif" font-size="14" lengthAdjust="spacing" textLength="18" x="711" y="86.0351">V5</text></g><g id="O"><rect fill="#FEFECE" filter="url(#fymp8pwo5x6oe)" height="50" rx="12.5" ry="12.5" style="stroke:#A80036;stroke-width:1.5;" width="50" x="862" y="68.04"/><line style="stroke:#A80036;stroke-width:1.5;" x1="862" x2="912" y1="94.3369" y2="94.3369"/><text fill="#000000" font-family="sans-serif" font-size="14" lengthAdjust="spacing" textLength="11" x="881.5" y="86.0351">O</text></g><g id="IV1"><rect fill="#FEFECE" filter="url(#fymp8pwo5x6oe)" height="50" rx="12.5" ry="12.5" style="stroke:#A80036;stroke-width:1.5;" width="50" x="7" y="322.04"/><line style="stroke:#A80036;stroke-width:1.5;" x1="7" x2="57" y1="348.3369" y2="348.3369"/><text fill="#000000" font-family="sans-serif" font-size="14" lengthAdjust="spacing" textLength="21" x="21.5" y="340.0351">IV1</text></g><g id="IV2"><rect fill="#FEFECE" filter="url(#fymp8pwo5x6oe)" height="50" rx="12.5" ry="12.5" style="stroke:#A80036;stroke-width:1.5;" width="50" x="133" y="322.04"/><line style="stroke:#A80036;stroke-width:1.5;" x1="133" x2="183" y1="348.3369" y2="348.3369"/><text fill="#000000" font-family="sans-serif" font-size="14" lengthAdjust="spacing" textLength="21" x="147.5" y="340.0351">IV2</text></g><g id="IV3"><rect fill="#FEFECE" filter="url(#fymp8pwo5x6oe)" height="50" rx="12.5" ry="12.5" style="stroke:#A80036;stroke-width:1.5;" width="50" x="266" y="322.04"/><line style="stroke:#A80036;stroke-width:1.5;" x1="266" x2="316" y1="348.3369" y2="348.3369"/><text fill="#000000" font-family="sans-serif" font-size="14" lengthAdjust="spacing" textLength="21" x="280.5" y="340.0351">IV3</text></g><g id="IV4"><rect fill="#FEFECE" filter="url(#fymp8pwo5x6oe)" height="50" rx="12.5" ry="12.5" style="stroke:#A80036;stroke-width:1.5;" width="50" x="406" y="322.04"/><line style="stroke:#A80036;stroke-width:1.5;" x1="406" x2="456" y1="348.3369" y2="348.3369"/><text fill="#000000" font-family="sans-serif" font-size="14" lengthAdjust="spacing" textLength="21" x="420.5" y="340.0351">IV4</text></g><g id="IV5"><rect fill="#FEFECE" filter="url(#fymp8pwo5x6oe)" height="50" rx="12.5" ry="12.5" style="stroke:#A80036;stroke-width:1.5;" width="50" x="502" y="195.04"/><line style="stroke:#A80036;stroke-width:1.5;" x1="502" x2="552" y1="221.3369" y2="221.3369"/><text fill="#000000" font-family="sans-serif" font-size="14" lengthAdjust="spacing" textLength="21" x="516.5" y="213.0351">IV5</text></g><g id="E"><rect fill="#FEFECE" filter="url(#fymp8pwo5x6oe)" height="50" rx="12.5" ry="12.5" style="stroke:#A80036;stroke-width:1.5;" width="50" x="656" y="195.04"/><line style="stroke:#A80036;stroke-width:1.5;" x1="656" x2="706" y1="221.3369" y2="221.3369"/><text fill="#000000" font-family="sans-serif" font-size="14" lengthAdjust="spacing" textLength="9" x="676.5" y="213.0351">E</text></g><!--MD5=[0cd6333ffcc361e29d6c85e8e9e73200]
link L to V1--><path d="M60.07,93.04 C79.22,93.04 105.67,93.04 125.95,93.04 " fill="none" id="L-to-V1" style="stroke:#A80036;stroke-width:1.0;"/><polygon fill="#A80036" points="130.96,93.04,121.96,89.04,125.96,93.04,121.96,97.04,130.96,93.04" style="stroke:#A80036;stroke-width:1.0;"/><text fill="#8B949E" font-family="sans-serif" font-size="13" lengthAdjust="spacing" textLength="34" x="78.5" y="86.1069">"4": 4</text><!--MD5=[282fef474e7a1288045d8da5e3fed262]
link V1 to V2--><path d="M181.18,93.04 C202.22,93.04 232.29,93.04 254.66,93.04 " fill="none" id="V1-to-V2" style="stroke:#A80036;stroke-width:1.0;"/><polygon fill="#A80036" points="259.88,93.04,250.88,89.04,254.88,93.04,250.88,97.04,259.88,93.04" style="stroke:#A80036;stroke-width:1.0;"/><text fill="#8B949E" font-family="sans-serif" font-size="13" lengthAdjust="spacing" textLength="42" x="199.5" y="86.1069">"2": 42</text><!--MD5=[26c2c4d6ec2874ab79cdeb310502f363]
link V2 to V3--><path d="M310.13,93.04 C333.06,93.04 367.01,93.04 391.49,93.04 " fill="none" id="V2-to-V3" style="stroke:#A80036;stroke-width:1.0;"/><polygon fill="#A80036" points="396.57,93.04,387.57,89.04,391.57,93.04,387.57,97.04,396.57,93.04" style="stroke:#A80036;stroke-width:1.0;"/><text fill="#8B949E" font-family="sans-serif" font-size="13" lengthAdjust="spacing" textLength="50" x="328.5" y="86.1069">"6": 426</text><!--MD5=[abe7a3619bd93d37304b5593c97421ba]
link V3 to V4--><path d="M447.26,93.04 C472.06,93.04 509.91,93.04 536.41,93.04 " fill="none" id="V3-to-V4" style="stroke:#A80036;stroke-width:1.0;"/><polygon fill="#A80036" points="541.55,93.04,532.55,89.04,536.55,93.04,532.55,97.04,541.55,93.04" style="stroke:#A80036;stroke-width:1.0;"/><text fill="#8B949E" font-family="sans-serif" font-size="13" lengthAdjust="spacing" textLength="58" x="465.5" y="86.1069">"7": 4267</text><!--MD5=[6d394b05a42a74da70039d1ac37e63ab]
link V4 to V5--><path d="M592.26,93.04 C619.03,93.04 661.29,93.04 689.8,93.04 " fill="none" id="V4-to-V5" style="stroke:#A80036;stroke-width:1.0;"/><polygon fill="#A80036" points="694.95,93.04,685.95,89.04,689.95,93.04,685.95,97.04,694.95,93.04" style="stroke:#A80036;stroke-width:1.0;"/><text fill="#8B949E" font-family="sans-serif" font-size="13" lengthAdjust="spacing" textLength="66" x="610.5" y="86.1069">"8": 42678</text><!--MD5=[60a955891e1fccd27844edd23888fecb]
link V5 to O--><path d="M745,93.04 C774.76,93.04 824.45,93.04 856.46,93.04 " fill="none" id="V5-to-O" style="stroke:#A80036;stroke-width:1.0;"/><polygon fill="#A80036" points="861.83,93.04,852.83,89.04,856.83,93.04,852.83,97.04,861.83,93.04" style="stroke:#A80036;stroke-width:1.0;"/><text fill="#8B949E" font-family="sans-serif" font-size="13" lengthAdjust="spacing" textLength="80" x="763.5" y="86.1069">"9": OPENED</text><!--MD5=[1598ffc23c339ba3673ae540841a091d]
link O to L--><path d="M861.9,87.56 C836.91,82.21 797.4,74.01 763,68.04 C478.36,18.65 395.15,6 113,68.04 C96.9,71.58 79.39,77.04 65.05,81.95 " fill="none" id="O-to-L" style="stroke:#A80036;stroke-width:1.0;"/><polygon fill="#A80036" points="60.32,83.6,70.132,84.4512,65.0475,81.9718,67.5269,76.8873,60.32,83.6" style="stroke:#A80036;stroke-width:1.0;"/><text fill="#8B949E" font-family="sans-serif" font-size="13" lengthAdjust="spacing" textLength="94" x="414" y="34.1069">"666": LOCKED</text><!--MD5=[d623f3423f40f888ad41967b7cff7d47]
link O to O--><path d="M912.28,82.55 C929.77,79.37 947,82.87 947,93.04 C947,102.18 933.09,105.93 917.58,104.29 " fill="none" id="O-to-O" style="stroke:#A80036;stroke-width:1.0;"/><polygon fill="#A80036" points="912.28,103.53,920.6154,108.7761,917.2286,104.2451,921.7596,100.8583,912.28,103.53" style="stroke:#A80036;stroke-width:1.0;"/><text fill="#8B949E" font-family="sans-serif" font-size="13" lengthAdjust="spacing" textLength="79" x="953" y="97.6069">"x": OPENED</text><!--MD5=[76a8736769b71644339dd4073dd4cbdc]
link L to IV1--><path d="M34.71,118.2 C34.16,164.68 32.95,266.36 32.35,316.66 " fill="none" id="L-to-IV1" style="stroke:#A80036;stroke-width:1.0;"/><polygon fill="#A80036" points="32.29,321.95,36.3926,312.9963,32.3471,316.9503,28.3931,312.9049,32.29,321.95" style="stroke:#A80036;stroke-width:1.0;"/><text fill="#8B949E" font-family="sans-serif" font-size="13" lengthAdjust="spacing" textLength="32" x="35" y="224.6069">"x": x</text><!--MD5=[8f0d08995d1ea173f64b8b236a70e6fe]
link IV1 to IV2--><path d="M57.2,347.04 C77.54,347.04 106.23,347.04 127.81,347.04 " fill="none" id="IV1-to-IV2" style="stroke:#A80036;stroke-width:1.0;"/><polygon fill="#A80036" points="132.85,347.04,123.85,343.04,127.85,347.04,123.85,351.04,132.85,347.04" style="stroke:#A80036;stroke-width:1.0;"/><text fill="#8B949E" font-family="sans-serif" font-size="13" lengthAdjust="spacing" textLength="39" x="75.5" y="340.1069">"x": xx</text><!--MD5=[83ad4f699a3d65a26a4b50bd544cf22e]
link V1 to IV2--><path d="M156.19,118.2 C156.56,164.68 157.37,266.36 157.77,316.66 " fill="none" id="V1-to-IV2" style="stroke:#A80036;stroke-width:1.0;"/><polygon fill="#A80036" points="157.81,321.95,161.7585,312.9273,157.7814,316.9501,153.7586,312.973,157.81,321.95" style="stroke:#A80036;stroke-width:1.0;"/><text fill="#8B949E" font-family="sans-serif" font-size="13" lengthAdjust="spacing" textLength="39" x="159" y="224.6069">"x": xx</text><!--MD5=[de50ded325c8f753eb28563e0adff432]
link IV2 to IV3--><path d="M183.02,347.04 C204.98,347.04 237,347.04 260.47,347.04 " fill="none" id="IV2-to-IV3" style="stroke:#A80036;stroke-width:1.0;"/><polygon fill="#A80036" points="265.64,347.04,256.64,343.04,260.64,347.04,256.64,351.04,265.64,347.04" style="stroke:#A80036;stroke-width:1.0;"/><text fill="#8B949E" font-family="sans-serif" font-size="13" lengthAdjust="spacing" textLength="46" x="201.5" y="340.1069">"x": xxx</text><!--MD5=[cf6bae37cdf80890626f6bf9d8371dd6]
link V2 to IV3--><path d="M285.58,118.2 C286.68,164.68 289.1,266.36 290.3,316.66 " fill="none" id="V2-to-IV3" style="stroke:#A80036;stroke-width:1.0;"/><polygon fill="#A80036" points="290.43,321.95,294.2233,312.8609,290.3157,316.9513,286.2254,313.0438,290.43,321.95" style="stroke:#A80036;stroke-width:1.0;"/><text fill="#8B949E" font-family="sans-serif" font-size="13" lengthAdjust="spacing" textLength="50" x="290" y="224.6069">"x" : xxx</text><!--MD5=[e9423404086200e2082d1ff84469acaf]
link IV3 to IV4--><path d="M316.03,347.04 C339.67,347.04 375.19,347.04 400.48,347.04 " fill="none" id="IV3-to-IV4" style="stroke:#A80036;stroke-width:1.0;"/><polygon fill="#A80036" points="405.72,347.04,396.72,343.04,400.72,347.04,396.72,351.04,405.72,347.04" style="stroke:#A80036;stroke-width:1.0;"/><text fill="#8B949E" font-family="sans-serif" font-size="13" lengthAdjust="spacing" textLength="53" x="334.5" y="340.1069">"x": xxxx</text><!--MD5=[15da0f509605c1c5cc01f1c22825c036]
link V3 to IV4--><path d="M422.86,118.2 C424.52,164.68 428.15,266.36 429.95,316.66 " fill="none" id="V3-to-IV4" style="stroke:#A80036;stroke-width:1.0;"/><polygon fill="#A80036" points="430.14,321.95,433.8032,312.8077,429.9544,316.9534,425.8087,313.1047,430.14,321.95" style="stroke:#A80036;stroke-width:1.0;"/><text fill="#8B949E" font-family="sans-serif" font-size="13" lengthAdjust="spacing" textLength="53" x="429" y="224.6069">"x": xxxx</text><!--MD5=[6733636bc5c2117fb7dccd4eeac052c9]
link IV4 to IV5--><path d="M449.45,322.01 C465.44,301.2 488.58,271.06 505.42,249.14 " fill="none" id="IV4-to-IV5" style="stroke:#A80036;stroke-width:1.0;"/><polygon fill="#A80036" points="508.49,245.14,499.8329,249.8363,505.4421,249.1037,506.1748,254.7129,508.49,245.14" style="stroke:#A80036;stroke-width:1.0;"/><text fill="#8B949E" font-family="sans-serif" font-size="13" lengthAdjust="spacing" textLength="60" x="486" y="288.1069">"x": xxxxx</text><!--MD5=[6aee97060d1f178e87255b8565ec5c8f]
link V4 to IV5--><path d="M559.29,118.14 C552.7,138.72 543.22,168.37 536.23,190.2 " fill="none" id="V4-to-IV5" style="stroke:#A80036;stroke-width:1.0;"/><polygon fill="#A80036" points="534.69,195.01,541.2314,187.6473,536.2066,190.2456,533.6083,185.2207,534.69,195.01" style="stroke:#A80036;stroke-width:1.0;"/><text fill="#8B949E" font-family="sans-serif" font-size="13" lengthAdjust="spacing" textLength="60" x="551" y="161.1069">"x": xxxxx</text><!--MD5=[80d72ba333718aba369fc17811ac32d9]
link IV5 to E--><path d="M552.09,220.04 C579.04,220.04 621.9,220.04 650.71,220.04 " fill="none" id="IV5-to-E" style="stroke:#A80036;stroke-width:1.0;"/><polygon fill="#A80036" points="655.93,220.04,646.93,216.04,650.93,220.04,646.93,224.04,655.93,220.04" style="stroke:#A80036;stroke-width:1.0;"/><text fill="#8B949E" font-family="sans-serif" font-size="13" lengthAdjust="spacing" textLength="67" x="570.5" y="213.1069">"x": ERROR</text><!--MD5=[efcb63d2ff47c4f5db40288eaec55025]
link E to V1--><path d="M655.66,213.64 C588.17,199.16 398.51,157.86 242,118.04 C223.35,113.29 202.56,107.51 186.1,102.8 " fill="none" id="E-to-V1" style="stroke:#A80036;stroke-width:1.0;"/><polygon fill="#A80036" points="181.13,101.38,188.6848,107.6986,185.9376,102.7536,190.8826,100.0064,181.13,101.38" style="stroke:#A80036;stroke-width:1.0;"/><text fill="#8B949E" font-family="sans-serif" font-size="13" lengthAdjust="spacing" textLength="34" x="436" y="161.1069">"4": 4</text><!--MD5=[016179458f937d60e5a31f869a8bddf4]
link E to IV1--><path d="M655.99,239.61 C631.6,256.6 592.77,280.74 555,292.04 C367.21,348.2 308.02,287.96 115,322.04 C97.22,325.18 77.8,330.67 62.23,335.61 " fill="none" id="E-to-IV1" style="stroke:#A80036;stroke-width:1.0;"/><polygon fill="#A80036" points="57.1,337.26,66.8922,338.315,61.8603,335.7304,64.4449,330.6985,57.1,337.26" style="stroke:#A80036;stroke-width:1.0;"/><text fill="#8B949E" font-family="sans-serif" font-size="13" lengthAdjust="spacing" textLength="32" x="596" y="288.1069">"x": x</text><!--MD5=[d57c227b8d9c3828ad69334313bc9e11]
@startuml

<style>
stateDiagram {
  FontColor #8b949e
  arrow {
    FontSize 13
  }
}
</style>
state L
state V1
state V2
state V3
state V4
state V5
state O

state IV1
state IV2
state IV3
state IV4
state IV5
state E

L -> V1 : "4": 4
V1 -> V2 : "2": 42
V2 -> V3 : "6": 426
V3 -> V4 : "7": 4267
V4 -> V5 : "8": 42678
V5 -> O : "9": OPENED
O -> L : "666": LOCKED
O -> O : "x": OPENED

L - -> IV1 : "x": x
IV1 -> IV2 : "x": xx
V1 - -> IV2 : "x": xx
IV2 -> IV3 : "x": xxx
V2 - -> IV3 : "x" : xxx
IV3 -> IV4 : "x": xxxx
V3 - -> IV4 : "x": xxxx
IV4 -> IV5 : "x": xxxxx
V4 - -> IV5 : "x": xxxxx
IV5 -> E : "x": ERROR
E -down-> V1 : "4": 4
E -down-> IV1 : "x": x
	
@enduml

PlantUML version 1.2021.00(Sun Jan 10 15:55:05 IST 2021)
(GPL source distribution)
Java Runtime: OpenJDK Runtime Environment
JVM: OpenJDK 64-Bit Server VM
Default Encoding: ANSI_X3.4-1968
Language: en
Country: US
--></g></svg>