<?xml version="1.0" encoding="UTF-8" standalone="no"?><svg xmlns="http://www.w3.org/2000/svg" xmlns:xlink="http://www.w3.org/1999/xlink" contentScriptType="application/ecmascript" contentStyleType="text/css" height="622px" preserveAspectRatio="none" style="width:590px;height:622px;" version="1.1" viewBox="0 0 590 622" width="590px" zoomAndPan="magnify"><defs><filter height="300%" id="f1gq0wdfk2u6w4" width="300%" x="-1" y="-1"><feGaussianBlur result="blurOut" stdDeviation="2.0"/><feColorMatrix in="blurOut" result="blurOut2" type="matrix" values="0 0 0 0 0 0 0 0 0 0 0 0 0 0 0 0 0 0 .4 0"/><feOffset dx="4.0" dy="4.0" in="blurOut2" result="blurOut3"/><feBlend in="SourceGraphic" in2="blurOut3" mode="normal"/></filter></defs><g><!--MD5=[3637e2e3ff64f8c7ec072f5df5e3a1dc]
class Expression--><rect codeLine="2" fill="#FEFECE" filter="url(#f1gq0wdfk2u6w4)" height="60.8047" id="Expression" style="stroke:#A80036;stroke-width:1.5;" width="155" x="293.5" y="7"/><ellipse cx="333.7" cy="23" fill="#A9DCDF" rx="11" ry="11" style="stroke:#A80036;stroke-width:1.0;"/><path d="M333.8094,18.3438 L332.6531,23.4219 L334.9813,23.4219 L333.8094,18.3438 Z M332.325,16.1094 L335.3094,16.1094 L338.6688,28.5 L336.2156,28.5 L335.45,25.4375 L332.1688,25.4375 L331.4188,28.5 L328.9813,28.5 L332.325,16.1094 Z " fill="#000000"/><text fill="#000000" font-family="sans-serif" font-size="12" font-style="italic" lengthAdjust="spacing" textLength="67" x="353.3" y="27.1543">Expression</text><line style="stroke:#A80036;stroke-width:1.5;" x1="294.5" x2="447.5" y1="39" y2="39"/><line style="stroke:#A80036;stroke-width:1.5;" x1="294.5" x2="447.5" y1="47" y2="47"/><ellipse cx="304.5" cy="58" fill="#84BE84" rx="3" ry="3" style="stroke:#038048;stroke-width:1.0;"/><text fill="#000000" font-family="sans-serif" font-size="11" font-style="italic" lengthAdjust="spacing" textLength="129" x="313.5" y="61.2104">accept(Visitor&amp; visitor)</text><!--MD5=[ff3d20c1112759d46dde2fcead238479]
class Value--><rect codeLine="5" fill="#FEFECE" filter="url(#f1gq0wdfk2u6w4)" height="86.4141" id="Value" style="stroke:#A80036;stroke-width:1.5;" width="156" x="7" y="128"/><ellipse cx="63.25" cy="144" fill="#ADD1B2" rx="11" ry="11" style="stroke:#A80036;stroke-width:1.0;"/><path d="M66.2188,149.6406 Q65.6406,149.9375 65,150.0781 Q64.3594,150.2344 63.6563,150.2344 Q61.1563,150.2344 59.8281,148.5938 Q58.5156,146.9375 58.5156,143.8125 Q58.5156,140.6875 59.8281,139.0313 Q61.1563,137.375 63.6563,137.375 Q64.3594,137.375 65,137.5313 Q65.6563,137.6875 66.2188,137.9844 L66.2188,140.7031 Q65.5938,140.125 65,139.8594 Q64.4063,139.5781 63.7813,139.5781 Q62.4375,139.5781 61.75,140.6563 Q61.0625,141.7188 61.0625,143.8125 Q61.0625,145.9063 61.75,146.9844 Q62.4375,148.0469 63.7813,148.0469 Q64.4063,148.0469 65,147.7813 Q65.5938,147.5 66.2188,146.9219 L66.2188,149.6406 Z " fill="#000000"/><text fill="#000000" font-family="sans-serif" font-size="12" lengthAdjust="spacing" textLength="35" x="83.75" y="148.1543">Value</text><line style="stroke:#A80036;stroke-width:1.5;" x1="8" x2="162" y1="160" y2="160"/><rect fill="none" height="6" style="stroke:#C82930;stroke-width:1.0;" width="6" x="15" y="168"/><text fill="#000000" font-family="sans-serif" font-size="11" lengthAdjust="spacing" textLength="48" x="27" y="174.2104">int value</text><line style="stroke:#A80036;stroke-width:1.5;" x1="8" x2="162" y1="180.8047" y2="180.8047"/><ellipse cx="18" cy="191.8047" fill="#84BE84" rx="3" ry="3" style="stroke:#038048;stroke-width:1.0;"/><text fill="#000000" font-family="sans-serif" font-size="11" lengthAdjust="spacing" textLength="130" x="27" y="195.0151">accept(Visitor&amp; visitor)</text><text fill="#000000" font-family="sans-serif" font-size="11" lengthAdjust="spacing" textLength="97" x="27" y="207.8198">visitor.visit(*this)</text><!--MD5=[4e916b5516e51ac6308a192ab863475a]
class Addition--><rect codeLine="10" fill="#FEFECE" filter="url(#f1gq0wdfk2u6w4)" height="86.4141" id="Addition" style="stroke:#A80036;stroke-width:1.5;" width="156" x="198" y="128"/><ellipse cx="246.25" cy="144" fill="#ADD1B2" rx="11" ry="11" style="stroke:#A80036;stroke-width:1.0;"/><path d="M249.2188,149.6406 Q248.6406,149.9375 248,150.0781 Q247.3594,150.2344 246.6563,150.2344 Q244.1563,150.2344 242.8281,148.5938 Q241.5156,146.9375 241.5156,143.8125 Q241.5156,140.6875 242.8281,139.0313 Q244.1563,137.375 246.6563,137.375 Q247.3594,137.375 248,137.5313 Q248.6563,137.6875 249.2188,137.9844 L249.2188,140.7031 Q248.5938,140.125 248,139.8594 Q247.4063,139.5781 246.7813,139.5781 Q245.4375,139.5781 244.75,140.6563 Q244.0625,141.7188 244.0625,143.8125 Q244.0625,145.9063 244.75,146.9844 Q245.4375,148.0469 246.7813,148.0469 Q247.4063,148.0469 248,147.7813 Q248.5938,147.5 249.2188,146.9219 L249.2188,149.6406 Z " fill="#000000"/><text fill="#000000" font-family="sans-serif" font-size="12" lengthAdjust="spacing" textLength="51" x="266.75" y="148.1543">Addition</text><line style="stroke:#A80036;stroke-width:1.5;" x1="199" x2="353" y1="160" y2="160"/><rect fill="none" height="6" style="stroke:#C82930;stroke-width:1.0;" width="6" x="206" y="168"/><text fill="#000000" font-family="sans-serif" font-size="11" lengthAdjust="spacing" textLength="94" x="218" y="174.2104">Expression&amp; lhs</text><rect fill="none" height="6" style="stroke:#C82930;stroke-width:1.0;" width="6" x="206" y="180.8047"/><text fill="#000000" font-family="sans-serif" font-size="11" lengthAdjust="spacing" textLength="94" x="218" y="187.0151">Expression&amp; lhs</text><line style="stroke:#A80036;stroke-width:1.5;" x1="199" x2="353" y1="193.6094" y2="193.6094"/><ellipse cx="209" cy="204.6094" fill="#84BE84" rx="3" ry="3" style="stroke:#038048;stroke-width:1.0;"/><text fill="#000000" font-family="sans-serif" font-size="11" lengthAdjust="spacing" textLength="130" x="218" y="207.8198">accept(Visitor&amp; visitor)</text><!--MD5=[a80aeb25cfca85a61c4213d8f76e28b6]
class Multiplication--><rect codeLine="15" fill="#FEFECE" filter="url(#f1gq0wdfk2u6w4)" height="86.4141" id="Multiplication" style="stroke:#A80036;stroke-width:1.5;" width="156" x="389" y="128"/><ellipse cx="422.9" cy="144" fill="#ADD1B2" rx="11" ry="11" style="stroke:#A80036;stroke-width:1.0;"/><path d="M425.8688,149.6406 Q425.2906,149.9375 424.65,150.0781 Q424.0094,150.2344 423.3063,150.2344 Q420.8063,150.2344 419.4781,148.5938 Q418.1656,146.9375 418.1656,143.8125 Q418.1656,140.6875 419.4781,139.0313 Q420.8063,137.375 423.3063,137.375 Q424.0094,137.375 424.65,137.5313 Q425.3063,137.6875 425.8688,137.9844 L425.8688,140.7031 Q425.2438,140.125 424.65,139.8594 Q424.0563,139.5781 423.4313,139.5781 Q422.0875,139.5781 421.4,140.6563 Q420.7125,141.7188 420.7125,143.8125 Q420.7125,145.9063 421.4,146.9844 Q422.0875,148.0469 423.4313,148.0469 Q424.0563,148.0469 424.65,147.7813 Q425.2438,147.5 425.8688,146.9219 L425.8688,149.6406 Z " fill="#000000"/><text fill="#000000" font-family="sans-serif" font-size="12" lengthAdjust="spacing" textLength="82" x="441.1" y="148.1543">Multiplication</text><line style="stroke:#A80036;stroke-width:1.5;" x1="390" x2="544" y1="160" y2="160"/><rect fill="none" height="6" style="stroke:#C82930;stroke-width:1.0;" width="6" x="397" y="168"/><text fill="#000000" font-family="sans-serif" font-size="11" lengthAdjust="spacing" textLength="94" x="409" y="174.2104">Expression&amp; lhs</text><rect fill="none" height="6" style="stroke:#C82930;stroke-width:1.0;" width="6" x="397" y="180.8047"/><text fill="#000000" font-family="sans-serif" font-size="11" lengthAdjust="spacing" textLength="94" x="409" y="187.0151">Expression&amp; lhs</text><line style="stroke:#A80036;stroke-width:1.5;" x1="390" x2="544" y1="193.6094" y2="193.6094"/><ellipse cx="400" cy="204.6094" fill="#84BE84" rx="3" ry="3" style="stroke:#038048;stroke-width:1.0;"/><text fill="#000000" font-family="sans-serif" font-size="11" lengthAdjust="spacing" textLength="130" x="409" y="207.8198">accept(Visitor&amp; visitor)</text><!--MD5=[53bf68ed638bcf4718423098b3d480ea]
class Visitor--><rect codeLine="24" fill="#FEFECE" filter="url(#f1gq0wdfk2u6w4)" height="86.4141" id="Visitor" style="stroke:#A80036;stroke-width:1.5;" width="168" x="287" y="274"/><ellipse cx="347.75" cy="290" fill="#A9DCDF" rx="11" ry="11" style="stroke:#A80036;stroke-width:1.0;"/><path d="M347.8594,285.3438 L346.7031,290.4219 L349.0313,290.4219 L347.8594,285.3438 Z M346.375,283.1094 L349.3594,283.1094 L352.7188,295.5 L350.2656,295.5 L349.5,292.4375 L346.2188,292.4375 L345.4688,295.5 L343.0313,295.5 L346.375,283.1094 Z " fill="#000000"/><text fill="#000000" font-family="sans-serif" font-size="12" font-style="italic" lengthAdjust="spacing" textLength="38" x="368.25" y="294.1543">Visitor</text><line style="stroke:#A80036;stroke-width:1.5;" x1="288" x2="454" y1="306" y2="306"/><line style="stroke:#A80036;stroke-width:1.5;" x1="288" x2="454" y1="314" y2="314"/><ellipse cx="298" cy="325" fill="#84BE84" rx="3" ry="3" style="stroke:#038048;stroke-width:1.0;"/><text fill="#000000" font-family="sans-serif" font-size="11" font-style="italic" lengthAdjust="spacing" textLength="102" x="307" y="328.2104">visit(Value&amp; expr)</text><ellipse cx="298" cy="337.8047" fill="#84BE84" rx="3" ry="3" style="stroke:#038048;stroke-width:1.0;"/><text fill="#000000" font-family="sans-serif" font-size="11" font-style="italic" lengthAdjust="spacing" textLength="111" x="307" y="341.0151">visit(Addition&amp; add)</text><ellipse cx="298" cy="350.6094" fill="#84BE84" rx="3" ry="3" style="stroke:#038048;stroke-width:1.0;"/><text fill="#000000" font-family="sans-serif" font-size="11" font-style="italic" lengthAdjust="spacing" textLength="142" x="307" y="353.8198">visit(Multiplication&amp; mult)</text><!--MD5=[69f2f3ad3645114d26612368d508f737]
class Printer--><rect codeLine="30" fill="#FEFECE" filter="url(#f1gq0wdfk2u6w4)" height="188.8516" id="Printer" style="stroke:#A80036;stroke-width:1.5;" width="169" x="187.5" y="420"/><ellipse cx="246.75" cy="436" fill="#ADD1B2" rx="11" ry="11" style="stroke:#A80036;stroke-width:1.0;"/><path d="M249.7188,441.6406 Q249.1406,441.9375 248.5,442.0781 Q247.8594,442.2344 247.1563,442.2344 Q244.6563,442.2344 243.3281,440.5938 Q242.0156,438.9375 242.0156,435.8125 Q242.0156,432.6875 243.3281,431.0313 Q244.6563,429.375 247.1563,429.375 Q247.8594,429.375 248.5,429.5313 Q249.1563,429.6875 249.7188,429.9844 L249.7188,432.7031 Q249.0938,432.125 248.5,431.8594 Q247.9063,431.5781 247.2813,431.5781 Q245.9375,431.5781 245.25,432.6563 Q244.5625,433.7188 244.5625,435.8125 Q244.5625,437.9063 245.25,438.9844 Q245.9375,440.0469 247.2813,440.0469 Q247.9063,440.0469 248.5,439.7813 Q249.0938,439.5 249.7188,438.9219 L249.7188,441.6406 Z " fill="#000000"/><text fill="#000000" font-family="sans-serif" font-size="12" lengthAdjust="spacing" textLength="42" x="267.25" y="440.1543">Printer</text><line style="stroke:#A80036;stroke-width:1.5;" x1="188.5" x2="355.5" y1="452" y2="452"/><rect fill="none" height="6" style="stroke:#C82930;stroke-width:1.0;" width="6" x="195.5" y="460"/><text fill="#000000" font-family="sans-serif" font-size="11" lengthAdjust="spacing" textLength="99" x="207.5" y="466.2104">stringstream oss</text><line style="stroke:#A80036;stroke-width:1.0;" x1="188.5" x2="355.5" y1="472.8047" y2="472.8047"/><ellipse cx="198.5" cy="483.8047" fill="#84BE84" rx="3" ry="3" style="stroke:#038048;stroke-width:1.0;"/><text fill="#000000" font-family="sans-serif" font-size="11" lengthAdjust="spacing" textLength="101" x="207.5" y="487.0151">visit(Value&amp; expr)</text><text fill="#000000" font-family="sans-serif" font-size="11" lengthAdjust="spacing" textLength="95" x="239.5" y="499.8198">oss &lt;&lt; de.value</text><ellipse cx="198.5" cy="509.4141" fill="#84BE84" rx="3" ry="3" style="stroke:#038048;stroke-width:1.0;"/><text fill="#000000" font-family="sans-serif" font-size="11" lengthAdjust="spacing" textLength="111" x="207.5" y="512.6245">visit(Addition&amp; add)</text><text fill="#000000" font-family="sans-serif" font-size="11" lengthAdjust="spacing" textLength="70" x="239.5" y="525.4292">print(ae.left)</text><text fill="#000000" font-family="sans-serif" font-size="11" lengthAdjust="spacing" textLength="66" x="239.5" y="538.2339">oss &lt;&lt; "+"</text><text fill="#000000" font-family="sans-serif" font-size="11" lengthAdjust="spacing" textLength="78" x="239.5" y="551.0386">print(ae.right)</text><ellipse cx="198.5" cy="560.6328" fill="#84BE84" rx="3" ry="3" style="stroke:#038048;stroke-width:1.0;"/><text fill="#000000" font-family="sans-serif" font-size="11" lengthAdjust="spacing" textLength="143" x="207.5" y="563.8433">visit(Multiplication&amp; mult)</text><text fill="#000000" font-family="sans-serif" font-size="11" lengthAdjust="spacing" textLength="70" x="239.5" y="576.6479">print(ae.left)</text><text fill="#000000" font-family="sans-serif" font-size="11" lengthAdjust="spacing" textLength="63" x="239.5" y="589.4526">oss &lt;&lt; "*"</text><text fill="#000000" font-family="sans-serif" font-size="11" lengthAdjust="spacing" textLength="78" x="239.5" y="602.2573">print(ae.right)</text><!--MD5=[8e7b4fdb525ee12c3e8d624d9db4aaa7]
class Evaluator--><rect codeLine="45" fill="#FEFECE" filter="url(#f1gq0wdfk2u6w4)" height="73.6094" id="Evaluator" style="stroke:#A80036;stroke-width:1.5;" width="159" x="391.5" y="477.5"/><ellipse cx="437.25" cy="493.5" fill="#ADD1B2" rx="11" ry="11" style="stroke:#A80036;stroke-width:1.0;"/><path d="M440.2188,499.1406 Q439.6406,499.4375 439,499.5781 Q438.3594,499.7344 437.6563,499.7344 Q435.1563,499.7344 433.8281,498.0938 Q432.5156,496.4375 432.5156,493.3125 Q432.5156,490.1875 433.8281,488.5313 Q435.1563,486.875 437.6563,486.875 Q438.3594,486.875 439,487.0313 Q439.6563,487.1875 440.2188,487.4844 L440.2188,490.2031 Q439.5938,489.625 439,489.3594 Q438.4063,489.0781 437.7813,489.0781 Q436.4375,489.0781 435.75,490.1563 Q435.0625,491.2188 435.0625,493.3125 Q435.0625,495.4063 435.75,496.4844 Q436.4375,497.5469 437.7813,497.5469 Q438.4063,497.5469 439,497.2813 Q439.5938,497 440.2188,496.4219 L440.2188,499.1406 Z " fill="#000000"/><text fill="#000000" font-family="sans-serif" font-size="12" lengthAdjust="spacing" textLength="59" x="457.75" y="497.6543">Evaluator</text><line style="stroke:#A80036;stroke-width:1.5;" x1="392.5" x2="549.5" y1="509.5" y2="509.5"/><rect fill="none" height="6" style="stroke:#C82930;stroke-width:1.0;" width="6" x="399.5" y="517.5"/><text fill="#000000" font-family="sans-serif" font-size="11" lengthAdjust="spacing" textLength="43" x="411.5" y="523.7104">int total</text><line style="stroke:#A80036;stroke-width:1.5;" x1="392.5" x2="549.5" y1="530.3047" y2="530.3047"/><ellipse cx="402.5" cy="541.3047" fill="#84BE84" rx="3" ry="3" style="stroke:#038048;stroke-width:1.0;"/><text fill="#000000" font-family="sans-serif" font-size="11" lengthAdjust="spacing" textLength="133" x="411.5" y="544.5151">visit(Expression&amp; expr)</text><!--MD5=[6b80e7eb9da08f51a279413cdef32010]
reverse link Expression to Value--><path codeLine="20" d="M288.43,76.47 C249.01,94.59 202.08,116.17 163.24,134.03 " fill="none" id="Expression-backto-Value" style="stroke:#A80036;stroke-width:1.0;"/><polygon fill="none" points="285.72,70.01,306.82,68.01,291.57,82.73,285.72,70.01" style="stroke:#A80036;stroke-width:1.0;"/><!--MD5=[345e47141b068175f89006910964ebf2]
reverse link Expression to Addition--><path codeLine="21" d="M337.85,84.38 C327.64,98.51 316.46,114 306.44,127.87 " fill="none" id="Expression-backto-Addition" style="stroke:#A80036;stroke-width:1.0;"/><polygon fill="none" points="332.29,80.12,349.68,68.01,343.64,88.32,332.29,80.12" style="stroke:#A80036;stroke-width:1.0;"/><!--MD5=[63c9ce6490a68e64108c49f24a1a31da]
reverse link Expression to Multiplication--><path codeLine="22" d="M404.49,84.38 C414.81,98.51 426.12,114 436.24,127.87 " fill="none" id="Expression-backto-Multiplication" style="stroke:#A80036;stroke-width:1.0;"/><polygon fill="none" points="398.68,88.29,392.54,68.01,409.99,80.04,398.68,88.29" style="stroke:#A80036;stroke-width:1.0;"/><!--MD5=[b94891c7bad610e60d86df326fe48107]
reverse link Visitor to Printer--><path codeLine="50" d="M340.27,378.67 C333.66,391.73 326.53,405.82 319.45,419.8 " fill="none" id="Visitor-backto-Printer" style="stroke:#A80036;stroke-width:1.0;"/><polygon fill="none" points="334.24,375.1,349.52,360.42,346.73,381.43,334.24,375.1" style="stroke:#A80036;stroke-width:1.0;"/><!--MD5=[55eb4365cca98c16848c70fe541b6da4]
reverse link Visitor to Evaluator--><path codeLine="51" d="M402,378.61 C418.56,410.99 438.39,449.75 452.53,477.39 " fill="none" id="Visitor-backto-Evaluator" style="stroke:#A80036;stroke-width:1.0;"/><polygon fill="none" points="395.57,381.41,392.7,360.42,408.04,375.04,395.57,381.41" style="stroke:#A80036;stroke-width:1.0;"/><!--MD5=[63211820b098698bb0401ae21e0218c0]
reverse link Visitor to Expression--><path codeLine="53" d="M473.74,285.76 C508.27,270.15 543.05,247.18 563,214 C582.69,181.24 583.54,160.23 563,128 C537.8,88.45 490.08,66.1 448.52,53.62 " fill="none" id="Visitor-backto-Expression" style="stroke:#A80036;stroke-width:1.0;stroke-dasharray:7.0,7.0;"/><polygon fill="none" points="476.39,292.24,455.24,293.48,471,279.32,476.39,292.24" style="stroke:#A80036;stroke-width:1.0;"/><!--MD5=[fa0cd518bacf322edfb293376920e7b5]
reverse link Multiplication to Visitor--><path codeLine="55" d="M427.68,230.98 C418.15,245.28 408.14,260.3 399.23,273.66 " fill="none" id="Multiplication-backto-Visitor" style="stroke:#A80036;stroke-width:1.0;stroke-dasharray:7.0,7.0;"/><polygon fill="none" points="422.06,226.8,438.97,214.04,433.71,234.56,422.06,226.8" style="stroke:#A80036;stroke-width:1.0;"/><!--MD5=[8b578497b238af4bd4fbb739952a57a7]
reverse link Addition to Visitor--><path codeLine="56" d="M314.91,230.98 C324.35,245.28 334.25,260.3 343.07,273.66 " fill="none" id="Addition-backto-Visitor" style="stroke:#A80036;stroke-width:1.0;stroke-dasharray:7.0,7.0;"/><polygon fill="none" points="308.9,234.59,303.73,214.04,320.59,226.88,308.9,234.59" style="stroke:#A80036;stroke-width:1.0;"/><!--MD5=[cbfd9ec4199fa8f1002002349243ae02]
reverse link Value to Visitor--><path codeLine="57" d="M181.26,220.47 C215.69,237.8 254.17,257.18 287.44,273.93 " fill="none" id="Value-backto-Visitor" style="stroke:#A80036;stroke-width:1.0;stroke-dasharray:7.0,7.0;"/><polygon fill="none" points="177.87,226.6,163.15,211.35,184.16,214.09,177.87,226.6" style="stroke:#A80036;stroke-width:1.0;"/><!--MD5=[03a96c636bc653a1aa05a5d9f2210050]
@startuml

abstract class Expression {
+{abstract} accept(Visitor& visitor)
}
class Value {
-int value
+accept(Visitor& visitor)
visitor.visit(*this)
}
class Addition {
-Expression& lhs
-Expression& lhs
+accept(Visitor& visitor)
}
class Multiplication {
-Expression& lhs
-Expression& lhs
+accept(Visitor& visitor)
}
Expression <|- - Value
Expression <|- - Addition
Expression <|- - Multiplication

abstract class Visitor {
+ {abstract} visit(Value& expr)
+ {abstract} visit(Addition& add)
+ {abstract} visit(Multiplication& mult)
}

class Printer {
-stringstream oss
- -
+ visit(Value& expr)
\toss << de.value
+ visit(Addition& add)
\tprint(ae.left)
\toss << "+"
\tprint(ae.right)
+ visit(Multiplication& mult)
\tprint(ae.left)
\toss << "*"
\tprint(ae.right)
}

class Evaluator {
-int total
+ visit(Expression& expr)
}

Visitor <|- - Printer
Visitor <|- - Evaluator

Visitor <|.. Expression

Multiplication <|.. Visitor
Addition <|.. Visitor
Value <|.. Visitor
	
@enduml

PlantUML version 1.2021.00(Sun Jan 10 15:55:05 IST 2021)
(GPL source distribution)
Java Runtime: OpenJDK Runtime Environment
JVM: OpenJDK 64-Bit Server VM
Default Encoding: ANSI_X3.4-1968
Language: en
Country: US
--></g></svg>