<?xml version="1.0" encoding="UTF-8" standalone="no"?><svg xmlns="http://www.w3.org/2000/svg" xmlns:xlink="http://www.w3.org/1999/xlink" contentScriptType="application/ecmascript" contentStyleType="text/css" height="470px" preserveAspectRatio="none" style="width:996px;height:470px;" version="1.1" viewBox="0 0 996 470" width="996px" zoomAndPan="magnify"><defs><filter height="300%" id="f18x3f44xrw7dm" width="300%" x="-1" y="-1"><feGaussianBlur result="blurOut" stdDeviation="2.0"/><feColorMatrix in="blurOut" result="blurOut2" type="matrix" values="0 0 0 0 0 0 0 0 0 0 0 0 0 0 0 0 0 0 .4 0"/><feOffset dx="4.0" dy="4.0" in="blurOut2" result="blurOut3"/><feBlend in="SourceGraphic" in2="blurOut3" mode="normal"/></filter></defs><g><!--MD5=[819d6ec098e7107626c5e1444f9f44c4]
class CollisionFactory--><rect codeLine="2" fill="#FEFECE" filter="url(#f18x3f44xrw7dm)" height="60.8047" id="CollisionFactory" style="stroke:#A80036;stroke-width:1.5;" width="145" x="444" y="275"/><ellipse cx="466.2" cy="291" fill="#ADD1B2" rx="11" ry="11" style="stroke:#A80036;stroke-width:1.0;"/><path d="M469.1688,296.6406 Q468.5906,296.9375 467.95,297.0781 Q467.3094,297.2344 466.6063,297.2344 Q464.1063,297.2344 462.7781,295.5938 Q461.4656,293.9375 461.4656,290.8125 Q461.4656,287.6875 462.7781,286.0313 Q464.1063,284.375 466.6063,284.375 Q467.3094,284.375 467.95,284.5313 Q468.6063,284.6875 469.1688,284.9844 L469.1688,287.7031 Q468.5438,287.125 467.95,286.8594 Q467.3563,286.5781 466.7313,286.5781 Q465.3875,286.5781 464.7,287.6563 Q464.0125,288.7188 464.0125,290.8125 Q464.0125,292.9063 464.7,293.9844 Q465.3875,295.0469 466.7313,295.0469 Q467.3563,295.0469 467.95,294.7813 Q468.5438,294.5 469.1688,293.9219 L469.1688,296.6406 Z " fill="#000000"/><text fill="#000000" font-family="sans-serif" font-size="12" lengthAdjust="spacing" textLength="97" x="481.8" y="295.1543">CollisionFactory</text><line style="stroke:#A80036;stroke-width:1.5;" x1="445" x2="588" y1="307" y2="307"/><line style="stroke:#A80036;stroke-width:1.5;" x1="445" x2="588" y1="315" y2="315"/><text fill="#000000" font-family="sans-serif" font-size="11" lengthAdjust="spacing" text-decoration="underline" textLength="133" x="450" y="329.2104">EO *create(const GO *)</text><!--MD5=[348da535070284c58c99d2a0d4bef6d6]
class CollisionShapeFactory--><rect codeLine="6" fill="#FEFECE" filter="url(#f18x3f44xrw7dm)" height="60.8047" id="CollisionShapeFactory" style="stroke:#A80036;stroke-width:1.5;" width="281" x="59" y="396"/><ellipse cx="126.75" cy="412" fill="#ADD1B2" rx="11" ry="11" style="stroke:#A80036;stroke-width:1.0;"/><path d="M129.7188,417.6406 Q129.1406,417.9375 128.5,418.0781 Q127.8594,418.2344 127.1563,418.2344 Q124.6563,418.2344 123.3281,416.5938 Q122.0156,414.9375 122.0156,411.8125 Q122.0156,408.6875 123.3281,407.0313 Q124.6563,405.375 127.1563,405.375 Q127.8594,405.375 128.5,405.5313 Q129.1563,405.6875 129.7188,405.9844 L129.7188,408.7031 Q129.0938,408.125 128.5,407.8594 Q127.9063,407.5781 127.2813,407.5781 Q125.9375,407.5781 125.25,408.6563 Q124.5625,409.7188 124.5625,411.8125 Q124.5625,413.9063 125.25,414.9844 Q125.9375,416.0469 127.2813,416.0469 Q127.9063,416.0469 128.5,415.7813 Q129.0938,415.5 129.7188,414.9219 L129.7188,417.6406 Z " fill="#000000"/><text fill="#000000" font-family="sans-serif" font-size="12" lengthAdjust="spacing" textLength="137" x="147.25" y="416.1543">CollisionShapeFactory</text><line style="stroke:#A80036;stroke-width:1.5;" x1="60" x2="339" y1="428" y2="428"/><line style="stroke:#A80036;stroke-width:1.5;" x1="60" x2="339" y1="436" y2="436"/><text fill="#000000" font-family="sans-serif" font-size="11" lengthAdjust="spacing" text-decoration="underline" textLength="269" x="65" y="450.2104">btCollisionShape *create(const G3D::AShape *)</text><!--MD5=[3074bec4ad01d4da007fb48723fac290]
class PhysicsBodyFactory--><rect codeLine="10" fill="#FEFECE" filter="url(#f18x3f44xrw7dm)" height="60.8047" id="PhysicsBodyFactory" style="stroke:#A80036;stroke-width:1.5;" width="283" x="375" y="396"/><ellipse cx="451.25" cy="412" fill="#ADD1B2" rx="11" ry="11" style="stroke:#A80036;stroke-width:1.0;"/><path d="M454.2188,417.6406 Q453.6406,417.9375 453,418.0781 Q452.3594,418.2344 451.6563,418.2344 Q449.1563,418.2344 447.8281,416.5938 Q446.5156,414.9375 446.5156,411.8125 Q446.5156,408.6875 447.8281,407.0313 Q449.1563,405.375 451.6563,405.375 Q452.3594,405.375 453,405.5313 Q453.6563,405.6875 454.2188,405.9844 L454.2188,408.7031 Q453.5938,408.125 453,407.8594 Q452.4063,407.5781 451.7813,407.5781 Q450.4375,407.5781 449.75,408.6563 Q449.0625,409.7188 449.0625,411.8125 Q449.0625,413.9063 449.75,414.9844 Q450.4375,416.0469 451.7813,416.0469 Q452.4063,416.0469 453,415.7813 Q453.5938,415.5 454.2188,414.9219 L454.2188,417.6406 Z " fill="#000000"/><text fill="#000000" font-family="sans-serif" font-size="12" lengthAdjust="spacing" textLength="122" x="471.75" y="416.1543">PhysicsBodyFactory</text><line style="stroke:#A80036;stroke-width:1.5;" x1="376" x2="657" y1="428" y2="428"/><line style="stroke:#A80036;stroke-width:1.5;" x1="376" x2="657" y1="436" y2="436"/><text fill="#000000" font-family="sans-serif" font-size="11" lengthAdjust="spacing" text-decoration="underline" textLength="271" x="381" y="450.2104">btRigidBody *create(const G3D::PhysicsEntity *)</text><!--MD5=[fd611b362e9df0351befafe8554ff159]
class GhostObjectFactory--><rect codeLine="14" fill="#FEFECE" filter="url(#f18x3f44xrw7dm)" height="60.8047" id="GhostObjectFactory" style="stroke:#A80036;stroke-width:1.5;" width="289" x="693" y="396"/><ellipse cx="771.75" cy="412" fill="#ADD1B2" rx="11" ry="11" style="stroke:#A80036;stroke-width:1.0;"/><path d="M774.7188,417.6406 Q774.1406,417.9375 773.5,418.0781 Q772.8594,418.2344 772.1563,418.2344 Q769.6563,418.2344 768.3281,416.5938 Q767.0156,414.9375 767.0156,411.8125 Q767.0156,408.6875 768.3281,407.0313 Q769.6563,405.375 772.1563,405.375 Q772.8594,405.375 773.5,405.5313 Q774.1563,405.6875 774.7188,405.9844 L774.7188,408.7031 Q774.0938,408.125 773.5,407.8594 Q772.9063,407.5781 772.2813,407.5781 Q770.9375,407.5781 770.25,408.6563 Q769.5625,409.7188 769.5625,411.8125 Q769.5625,413.9063 770.25,414.9844 Q770.9375,416.0469 772.2813,416.0469 Q772.9063,416.0469 773.5,415.7813 Q774.0938,415.5 774.7188,414.9219 L774.7188,417.6406 Z " fill="#000000"/><text fill="#000000" font-family="sans-serif" font-size="12" lengthAdjust="spacing" textLength="123" x="792.25" y="416.1543">GhostObjectFactory</text><line style="stroke:#A80036;stroke-width:1.5;" x1="694" x2="981" y1="428" y2="428"/><line style="stroke:#A80036;stroke-width:1.5;" x1="694" x2="981" y1="436" y2="436"/><text fill="#000000" font-family="sans-serif" font-size="11" lengthAdjust="spacing" text-decoration="underline" textLength="277" x="699" y="450.2104">btGhostObject *create(const G3D::GhostEntity *)</text><!--MD5=[797552d2cd4a866700fc195419467a22]
class DataFactory--><rect codeLine="18" fill="#FEFECE" filter="url(#f18x3f44xrw7dm)" height="73.6094" id="DataFactory" style="stroke:#A80036;stroke-width:1.5;" width="202" x="415.5" y="7"/><ellipse cx="474.25" cy="23" fill="#ADD1B2" rx="11" ry="11" style="stroke:#A80036;stroke-width:1.0;"/><path d="M477.2188,28.6406 Q476.6406,28.9375 476,29.0781 Q475.3594,29.2344 474.6563,29.2344 Q472.1563,29.2344 470.8281,27.5938 Q469.5156,25.9375 469.5156,22.8125 Q469.5156,19.6875 470.8281,18.0313 Q472.1563,16.375 474.6563,16.375 Q475.3594,16.375 476,16.5313 Q476.6563,16.6875 477.2188,16.9844 L477.2188,19.7031 Q476.5938,19.125 476,18.8594 Q475.4063,18.5781 474.7813,18.5781 Q473.4375,18.5781 472.75,19.6563 Q472.0625,20.7188 472.0625,22.8125 Q472.0625,24.9063 472.75,25.9844 Q473.4375,27.0469 474.7813,27.0469 Q475.4063,27.0469 476,26.7813 Q476.5938,26.5 477.2188,25.9219 L477.2188,28.6406 Z " fill="#000000"/><text fill="#000000" font-family="sans-serif" font-size="12" lengthAdjust="spacing" textLength="76" x="494.75" y="27.1543">DataFactory</text><line style="stroke:#A80036;stroke-width:1.5;" x1="416.5" x2="616.5" y1="39" y2="39"/><line style="stroke:#A80036;stroke-width:1.5;" x1="416.5" x2="616.5" y1="47" y2="47"/><text fill="#000000" font-family="sans-serif" font-size="11" lengthAdjust="spacing" text-decoration="underline" textLength="190" x="421.5" y="61.2104">const inline ED convert(const GD)</text><text fill="#000000" font-family="sans-serif" font-size="11" lengthAdjust="spacing" text-decoration="underline" textLength="190" x="421.5" y="74.0151">const inline GD convert(const ED)</text><!--MD5=[678ba86161b65c93147b2a3a8cf02be2]
class Frame--><rect codeLine="23" fill="#FEFECE" filter="url(#f18x3f44xrw7dm)" height="73.6094" id="Frame" style="stroke:#A80036;stroke-width:1.5;" width="337" x="7" y="141"/><ellipse cx="151.75" cy="157" fill="#ADD1B2" rx="11" ry="11" style="stroke:#A80036;stroke-width:1.0;"/><path d="M154.7188,162.6406 Q154.1406,162.9375 153.5,163.0781 Q152.8594,163.2344 152.1563,163.2344 Q149.6563,163.2344 148.3281,161.5938 Q147.0156,159.9375 147.0156,156.8125 Q147.0156,153.6875 148.3281,152.0313 Q149.6563,150.375 152.1563,150.375 Q152.8594,150.375 153.5,150.5313 Q154.1563,150.6875 154.7188,150.9844 L154.7188,153.7031 Q154.0938,153.125 153.5,152.8594 Q152.9063,152.5781 152.2813,152.5781 Q150.9375,152.5781 150.25,153.6563 Q149.5625,154.7188 149.5625,156.8125 Q149.5625,158.9063 150.25,159.9844 Q150.9375,161.0469 152.2813,161.0469 Q152.9063,161.0469 153.5,160.7813 Q154.0938,160.5 154.7188,159.9219 L154.7188,162.6406 Z " fill="#000000"/><text fill="#000000" font-family="sans-serif" font-size="12" lengthAdjust="spacing" textLength="39" x="172.25" y="161.1543">Frame</text><line style="stroke:#A80036;stroke-width:1.5;" x1="8" x2="343" y1="173" y2="173"/><line style="stroke:#A80036;stroke-width:1.5;" x1="8" x2="343" y1="181" y2="181"/><text fill="#000000" font-family="sans-serif" font-size="11" lengthAdjust="spacing" text-decoration="underline" textLength="325" x="13" y="195.2104">const btTransform convert(const G3D::CoordinateFrame)</text><text fill="#000000" font-family="sans-serif" font-size="11" lengthAdjust="spacing" text-decoration="underline" textLength="325" x="13" y="208.0151">const G3D::CoordinateFrame convert(const btTransform)</text><!--MD5=[56f3777c4a342cd8020ffcf5f59f8034]
class Matrix--><rect codeLine="28" fill="#FEFECE" filter="url(#f18x3f44xrw7dm)" height="73.6094" id="Matrix" style="stroke:#A80036;stroke-width:1.5;" width="274" x="379.5" y="141"/><ellipse cx="493.75" cy="157" fill="#ADD1B2" rx="11" ry="11" style="stroke:#A80036;stroke-width:1.0;"/><path d="M496.7188,162.6406 Q496.1406,162.9375 495.5,163.0781 Q494.8594,163.2344 494.1563,163.2344 Q491.6563,163.2344 490.3281,161.5938 Q489.0156,159.9375 489.0156,156.8125 Q489.0156,153.6875 490.3281,152.0313 Q491.6563,150.375 494.1563,150.375 Q494.8594,150.375 495.5,150.5313 Q496.1563,150.6875 496.7188,150.9844 L496.7188,153.7031 Q496.0938,153.125 495.5,152.8594 Q494.9063,152.5781 494.2813,152.5781 Q492.9375,152.5781 492.25,153.6563 Q491.5625,154.7188 491.5625,156.8125 Q491.5625,158.9063 492.25,159.9844 Q492.9375,161.0469 494.2813,161.0469 Q494.9063,161.0469 495.5,160.7813 Q496.0938,160.5 496.7188,159.9219 L496.7188,162.6406 Z " fill="#000000"/><text fill="#000000" font-family="sans-serif" font-size="12" lengthAdjust="spacing" textLength="37" x="514.25" y="161.1543">Matrix</text><line style="stroke:#A80036;stroke-width:1.5;" x1="380.5" x2="652.5" y1="173" y2="173"/><line style="stroke:#A80036;stroke-width:1.5;" x1="380.5" x2="652.5" y1="181" y2="181"/><text fill="#000000" font-family="sans-serif" font-size="11" lengthAdjust="spacing" text-decoration="underline" textLength="262" x="385.5" y="195.2104">const btMatrix3x3 convert(const G3D::Matrix3)</text><text fill="#000000" font-family="sans-serif" font-size="11" lengthAdjust="spacing" text-decoration="underline" textLength="262" x="385.5" y="208.0151">const G3D::Matrix3 convert(const btMatrix3x3)</text><!--MD5=[ea775af43a0da7cb543d6bee4ab62c40]
class Vector--><rect codeLine="33" fill="#FEFECE" filter="url(#f18x3f44xrw7dm)" height="73.6094" id="Vector" style="stroke:#A80036;stroke-width:1.5;" width="265" x="689" y="141"/><ellipse cx="796.75" cy="157" fill="#ADD1B2" rx="11" ry="11" style="stroke:#A80036;stroke-width:1.0;"/><path d="M799.7188,162.6406 Q799.1406,162.9375 798.5,163.0781 Q797.8594,163.2344 797.1563,163.2344 Q794.6563,163.2344 793.3281,161.5938 Q792.0156,159.9375 792.0156,156.8125 Q792.0156,153.6875 793.3281,152.0313 Q794.6563,150.375 797.1563,150.375 Q797.8594,150.375 798.5,150.5313 Q799.1563,150.6875 799.7188,150.9844 L799.7188,153.7031 Q799.0938,153.125 798.5,152.8594 Q797.9063,152.5781 797.2813,152.5781 Q795.9375,152.5781 795.25,153.6563 Q794.5625,154.7188 794.5625,156.8125 Q794.5625,158.9063 795.25,159.9844 Q795.9375,161.0469 797.2813,161.0469 Q797.9063,161.0469 798.5,160.7813 Q799.0938,160.5 799.7188,159.9219 L799.7188,162.6406 Z " fill="#000000"/><text fill="#000000" font-family="sans-serif" font-size="12" lengthAdjust="spacing" textLength="41" x="817.25" y="161.1543">Vector</text><line style="stroke:#A80036;stroke-width:1.5;" x1="690" x2="953" y1="173" y2="173"/><line style="stroke:#A80036;stroke-width:1.5;" x1="690" x2="953" y1="181" y2="181"/><text fill="#000000" font-family="sans-serif" font-size="11" lengthAdjust="spacing" text-decoration="underline" textLength="253" x="695" y="195.2104">const btVector3 convert(const G3D::Vector3)</text><text fill="#000000" font-family="sans-serif" font-size="11" lengthAdjust="spacing" text-decoration="underline" textLength="253" x="695" y="208.0151">const G3D::Vector3 convert(const btVector3)</text><!--MD5=[58559fe1e086c5b0260a6a9205a13ed9]
reverse link CollisionFactory to CollisionShapeFactory--><path codeLine="38" d="M424.85,340.9 C378.46,358.32 322.71,379.25 278.27,395.93 " fill="none" id="CollisionFactory-backto-CollisionShapeFactory" style="stroke:#A80036;stroke-width:1.0;"/><polygon fill="none" points="422.59,334.28,443.77,333.8,427.51,347.38,422.59,334.28" style="stroke:#A80036;stroke-width:1.0;"/><!--MD5=[b3d77df76d0791237b86cd3ed3986686]
reverse link CollisionFactory to PhysicsBodyFactory--><path codeLine="39" d="M516.5,356.33 C516.5,369.73 516.5,383.81 516.5,395.74 " fill="none" id="CollisionFactory-backto-PhysicsBodyFactory" style="stroke:#A80036;stroke-width:1.0;"/><polygon fill="none" points="509.5,356.22,516.5,336.22,523.5,356.22,509.5,356.22" style="stroke:#A80036;stroke-width:1.0;"/><!--MD5=[7d3faf7a74a422cc014fdbf594a2e965]
reverse link CollisionFactory to GhostObjectFactory--><path codeLine="40" d="M608.25,340.52 C655.5,358.03 712.55,379.18 757.92,396 " fill="none" id="CollisionFactory-backto-GhostObjectFactory" style="stroke:#A80036;stroke-width:1.0;"/><polygon fill="none" points="605.66,347.02,589.34,333.5,610.53,333.89,605.66,347.02" style="stroke:#A80036;stroke-width:1.0;"/><!--MD5=[79e2e7c902911e039f00f55f48e46347]
reverse link DataFactory to Frame--><path codeLine="42" d="M404.53,88.34 C360.51,105.38 310.56,124.72 268.57,140.97 " fill="none" id="DataFactory-backto-Frame" style="stroke:#A80036;stroke-width:1.0;"/><polygon fill="none" points="402.14,81.76,423.32,81.07,407.2,94.82,402.14,81.76" style="stroke:#A80036;stroke-width:1.0;"/><!--MD5=[8e5414c1e77bffbadf1a9312bb2e88c2]
reverse link DataFactory to Matrix--><path codeLine="43" d="M516.5,101.38 C516.5,114.8 516.5,128.76 516.5,140.97 " fill="none" id="DataFactory-backto-Matrix" style="stroke:#A80036;stroke-width:1.0;"/><polygon fill="none" points="509.5,101.07,516.5,81.07,523.5,101.07,509.5,101.07" style="stroke:#A80036;stroke-width:1.0;"/><!--MD5=[9386b61b7b380f7d500643b2244a274c]
reverse link DataFactory to Vector--><path codeLine="44" d="M618.23,89.03 C657.22,105.9 701.2,124.94 738.26,140.97 " fill="none" id="DataFactory-backto-Vector" style="stroke:#A80036;stroke-width:1.0;"/><polygon fill="none" points="615.42,95.44,599.84,81.07,620.98,82.59,615.42,95.44" style="stroke:#A80036;stroke-width:1.0;"/><!--MD5=[b80e8dbf898a80db1e4a8ff152f31107]
link Matrix to CollisionFactory--><!--MD5=[dd96ccf2d6b30b8134d4e841d7b93a40]
@startuml

class CollisionFactory {
    {static} EO *create(const GO *)
}

class CollisionShapeFactory {
    {static} btCollisionShape *create(const G3D::AShape *)
}

class PhysicsBodyFactory {
    {static} btRigidBody *create(const G3D::PhysicsEntity *)
}

class GhostObjectFactory {
    {static} btGhostObject *create(const G3D::GhostEntity *)
}

class DataFactory {
    {static} const inline ED convert(const GD)
    {static} const inline GD convert(const ED)
}

class Frame {
    {static} const btTransform convert(const G3D::CoordinateFrame)
    {static} const G3D::CoordinateFrame convert(const btTransform)
}

class Matrix  {
    {static} const btMatrix3x3 convert(const G3D::Matrix3)
    {static} const G3D::Matrix3 convert(const btMatrix3x3)
}

class Vector {
    {static} const btVector3 convert(const G3D::Vector3)
    {static} const G3D::Vector3 convert(const btVector3)
}

CollisionFactory <|- - CollisionShapeFactory
CollisionFactory <|- - PhysicsBodyFactory
CollisionFactory <|- - GhostObjectFactory

DataFactory <|- - Frame
DataFactory <|- - Matrix
DataFactory <|- - Vector

Matrix -down[hidden]- CollisionFactory
      
@enduml

PlantUML version 1.2021.00(Sun Jan 10 15:55:05 IST 2021)
(GPL source distribution)
Java Runtime: OpenJDK Runtime Environment
JVM: OpenJDK 64-Bit Server VM
Default Encoding: ANSI_X3.4-1968
Language: en
Country: US
--></g></svg>