<?xml version="1.0" encoding="UTF-8" standalone="no"?><svg xmlns="http://www.w3.org/2000/svg" xmlns:xlink="http://www.w3.org/1999/xlink" contentScriptType="application/ecmascript" contentStyleType="text/css" height="349px" preserveAspectRatio="none" style="width:939px;height:349px;" version="1.1" viewBox="0 0 939 349" width="939px" zoomAndPan="magnify"><defs><filter height="300%" id="fdsrj27lgqk52" width="300%" x="-1" y="-1"><feGaussianBlur result="blurOut" stdDeviation="2.0"/><feColorMatrix in="blurOut" result="blurOut2" type="matrix" values="0 0 0 0 0 0 0 0 0 0 0 0 0 0 0 0 0 0 .4 0"/><feOffset dx="4.0" dy="4.0" in="blurOut2" result="blurOut3"/><feBlend in="SourceGraphic" in2="blurOut3" mode="normal"/></filter></defs><g><!--MD5=[819d6ec098e7107626c5e1444f9f44c4]
class CollisionFactory--><rect codeLine="2" fill="#FEFECE" filter="url(#fdsrj27lgqk52)" height="60.8047" id="CollisionFactory" style="stroke:#A80036;stroke-width:1.5;" width="145" x="79" y="7"/><ellipse cx="101.2" cy="23" fill="#ADD1B2" rx="11" ry="11" style="stroke:#A80036;stroke-width:1.0;"/><path d="M104.1688,28.6406 Q103.5906,28.9375 102.95,29.0781 Q102.3094,29.2344 101.6063,29.2344 Q99.1063,29.2344 97.7781,27.5938 Q96.4656,25.9375 96.4656,22.8125 Q96.4656,19.6875 97.7781,18.0313 Q99.1063,16.375 101.6063,16.375 Q102.3094,16.375 102.95,16.5313 Q103.6063,16.6875 104.1688,16.9844 L104.1688,19.7031 Q103.5438,19.125 102.95,18.8594 Q102.3563,18.5781 101.7313,18.5781 Q100.3875,18.5781 99.7,19.6563 Q99.0125,20.7188 99.0125,22.8125 Q99.0125,24.9063 99.7,25.9844 Q100.3875,27.0469 101.7313,27.0469 Q102.3563,27.0469 102.95,26.7813 Q103.5438,26.5 104.1688,25.9219 L104.1688,28.6406 Z " fill="#000000"/><text fill="#000000" font-family="sans-serif" font-size="12" lengthAdjust="spacing" textLength="97" x="116.8" y="27.1543">CollisionFactory</text><line style="stroke:#A80036;stroke-width:1.5;" x1="80" x2="223" y1="39" y2="39"/><line style="stroke:#A80036;stroke-width:1.5;" x1="80" x2="223" y1="47" y2="47"/><text fill="#000000" font-family="sans-serif" font-size="11" lengthAdjust="spacing" text-decoration="underline" textLength="133" x="85" y="61.2104">EO *create(const GO *)</text><!--MD5=[348da535070284c58c99d2a0d4bef6d6]
class CollisionShapeFactory--><rect codeLine="6" fill="#FEFECE" filter="url(#fdsrj27lgqk52)" height="60.8047" id="CollisionShapeFactory" style="stroke:#A80036;stroke-width:1.5;" width="281" x="259" y="7"/><ellipse cx="326.75" cy="23" fill="#ADD1B2" rx="11" ry="11" style="stroke:#A80036;stroke-width:1.0;"/><path d="M329.7188,28.6406 Q329.1406,28.9375 328.5,29.0781 Q327.8594,29.2344 327.1563,29.2344 Q324.6563,29.2344 323.3281,27.5938 Q322.0156,25.9375 322.0156,22.8125 Q322.0156,19.6875 323.3281,18.0313 Q324.6563,16.375 327.1563,16.375 Q327.8594,16.375 328.5,16.5313 Q329.1563,16.6875 329.7188,16.9844 L329.7188,19.7031 Q329.0938,19.125 328.5,18.8594 Q327.9063,18.5781 327.2813,18.5781 Q325.9375,18.5781 325.25,19.6563 Q324.5625,20.7188 324.5625,22.8125 Q324.5625,24.9063 325.25,25.9844 Q325.9375,27.0469 327.2813,27.0469 Q327.9063,27.0469 328.5,26.7813 Q329.0938,26.5 329.7188,25.9219 L329.7188,28.6406 Z " fill="#000000"/><text fill="#000000" font-family="sans-serif" font-size="12" lengthAdjust="spacing" textLength="137" x="347.25" y="27.1543">CollisionShapeFactory</text><line style="stroke:#A80036;stroke-width:1.5;" x1="260" x2="539" y1="39" y2="39"/><line style="stroke:#A80036;stroke-width:1.5;" x1="260" x2="539" y1="47" y2="47"/><text fill="#000000" font-family="sans-serif" font-size="11" lengthAdjust="spacing" text-decoration="underline" textLength="269" x="265" y="61.2104">btCollisionShape *create(const G3D::AShape *)</text><!--MD5=[3074bec4ad01d4da007fb48723fac290]
class PhysicsBodyFactory--><rect codeLine="10" fill="#FEFECE" filter="url(#fdsrj27lgqk52)" height="60.8047" id="PhysicsBodyFactory" style="stroke:#A80036;stroke-width:1.5;" width="283" x="575" y="7"/><ellipse cx="651.25" cy="23" fill="#ADD1B2" rx="11" ry="11" style="stroke:#A80036;stroke-width:1.0;"/><path d="M654.2188,28.6406 Q653.6406,28.9375 653,29.0781 Q652.3594,29.2344 651.6563,29.2344 Q649.1563,29.2344 647.8281,27.5938 Q646.5156,25.9375 646.5156,22.8125 Q646.5156,19.6875 647.8281,18.0313 Q649.1563,16.375 651.6563,16.375 Q652.3594,16.375 653,16.5313 Q653.6563,16.6875 654.2188,16.9844 L654.2188,19.7031 Q653.5938,19.125 653,18.8594 Q652.4063,18.5781 651.7813,18.5781 Q650.4375,18.5781 649.75,19.6563 Q649.0625,20.7188 649.0625,22.8125 Q649.0625,24.9063 649.75,25.9844 Q650.4375,27.0469 651.7813,27.0469 Q652.4063,27.0469 653,26.7813 Q653.5938,26.5 654.2188,25.9219 L654.2188,28.6406 Z " fill="#000000"/><text fill="#000000" font-family="sans-serif" font-size="12" lengthAdjust="spacing" textLength="122" x="671.75" y="27.1543">PhysicsBodyFactory</text><line style="stroke:#A80036;stroke-width:1.5;" x1="576" x2="857" y1="39" y2="39"/><line style="stroke:#A80036;stroke-width:1.5;" x1="576" x2="857" y1="47" y2="47"/><text fill="#000000" font-family="sans-serif" font-size="11" lengthAdjust="spacing" text-decoration="underline" textLength="271" x="581" y="61.2104">btRigidBody *create(const G3D::PhysicsEntity *)</text><!--MD5=[fd611b362e9df0351befafe8554ff159]
class GhostObjectFactory--><rect codeLine="14" fill="#FEFECE" filter="url(#fdsrj27lgqk52)" height="60.8047" id="GhostObjectFactory" style="stroke:#A80036;stroke-width:1.5;" width="289" x="7" y="134.5"/><ellipse cx="85.75" cy="150.5" fill="#ADD1B2" rx="11" ry="11" style="stroke:#A80036;stroke-width:1.0;"/><path d="M88.7188,156.1406 Q88.1406,156.4375 87.5,156.5781 Q86.8594,156.7344 86.1563,156.7344 Q83.6563,156.7344 82.3281,155.0938 Q81.0156,153.4375 81.0156,150.3125 Q81.0156,147.1875 82.3281,145.5313 Q83.6563,143.875 86.1563,143.875 Q86.8594,143.875 87.5,144.0313 Q88.1563,144.1875 88.7188,144.4844 L88.7188,147.2031 Q88.0938,146.625 87.5,146.3594 Q86.9063,146.0781 86.2813,146.0781 Q84.9375,146.0781 84.25,147.1563 Q83.5625,148.2188 83.5625,150.3125 Q83.5625,152.4063 84.25,153.4844 Q84.9375,154.5469 86.2813,154.5469 Q86.9063,154.5469 87.5,154.2813 Q88.0938,154 88.7188,153.4219 L88.7188,156.1406 Z " fill="#000000"/><text fill="#000000" font-family="sans-serif" font-size="12" lengthAdjust="spacing" textLength="123" x="106.25" y="154.6543">GhostObjectFactory</text><line style="stroke:#A80036;stroke-width:1.5;" x1="8" x2="295" y1="166.5" y2="166.5"/><line style="stroke:#A80036;stroke-width:1.5;" x1="8" x2="295" y1="174.5" y2="174.5"/><text fill="#000000" font-family="sans-serif" font-size="11" lengthAdjust="spacing" text-decoration="underline" textLength="277" x="13" y="188.7104">btGhostObject *create(const G3D::GhostEntity *)</text><!--MD5=[797552d2cd4a866700fc195419467a22]
class DataFactory--><rect codeLine="18" fill="#FEFECE" filter="url(#fdsrj27lgqk52)" height="73.6094" id="DataFactory" style="stroke:#A80036;stroke-width:1.5;" width="212" x="330.5" y="128"/><ellipse cx="394.25" cy="144" fill="#ADD1B2" rx="11" ry="11" style="stroke:#A80036;stroke-width:1.0;"/><path d="M397.2188,149.6406 Q396.6406,149.9375 396,150.0781 Q395.3594,150.2344 394.6563,150.2344 Q392.1563,150.2344 390.8281,148.5938 Q389.5156,146.9375 389.5156,143.8125 Q389.5156,140.6875 390.8281,139.0313 Q392.1563,137.375 394.6563,137.375 Q395.3594,137.375 396,137.5313 Q396.6563,137.6875 397.2188,137.9844 L397.2188,140.7031 Q396.5938,140.125 396,139.8594 Q395.4063,139.5781 394.7813,139.5781 Q393.4375,139.5781 392.75,140.6563 Q392.0625,141.7188 392.0625,143.8125 Q392.0625,145.9063 392.75,146.9844 Q393.4375,148.0469 394.7813,148.0469 Q395.4063,148.0469 396,147.7813 Q396.5938,147.5 397.2188,146.9219 L397.2188,149.6406 Z " fill="#000000"/><text fill="#000000" font-family="sans-serif" font-size="12" lengthAdjust="spacing" textLength="76" x="414.75" y="148.1543">DataFactory</text><line style="stroke:#A80036;stroke-width:1.5;" x1="331.5" x2="541.5" y1="160" y2="160"/><line style="stroke:#A80036;stroke-width:1.5;" x1="331.5" x2="541.5" y1="168" y2="168"/><text fill="#000000" font-family="sans-serif" font-size="11" lengthAdjust="spacing" text-decoration="underline" textLength="200" x="336.5" y="182.2104">const inline ED convert(const GD&amp;)</text><text fill="#000000" font-family="sans-serif" font-size="11" lengthAdjust="spacing" text-decoration="underline" textLength="200" x="336.5" y="195.0151">const inline GD convert(const ED&amp;)</text><!--MD5=[678ba86161b65c93147b2a3a8cf02be2]
class Frame--><rect codeLine="23" fill="#FEFECE" filter="url(#fdsrj27lgqk52)" height="73.6094" id="Frame" style="stroke:#A80036;stroke-width:1.5;" width="347" x="578" y="128"/><ellipse cx="727.75" cy="144" fill="#ADD1B2" rx="11" ry="11" style="stroke:#A80036;stroke-width:1.0;"/><path d="M730.7188,149.6406 Q730.1406,149.9375 729.5,150.0781 Q728.8594,150.2344 728.1563,150.2344 Q725.6563,150.2344 724.3281,148.5938 Q723.0156,146.9375 723.0156,143.8125 Q723.0156,140.6875 724.3281,139.0313 Q725.6563,137.375 728.1563,137.375 Q728.8594,137.375 729.5,137.5313 Q730.1563,137.6875 730.7188,137.9844 L730.7188,140.7031 Q730.0938,140.125 729.5,139.8594 Q728.9063,139.5781 728.2813,139.5781 Q726.9375,139.5781 726.25,140.6563 Q725.5625,141.7188 725.5625,143.8125 Q725.5625,145.9063 726.25,146.9844 Q726.9375,148.0469 728.2813,148.0469 Q728.9063,148.0469 729.5,147.7813 Q730.0938,147.5 730.7188,146.9219 L730.7188,149.6406 Z " fill="#000000"/><text fill="#000000" font-family="sans-serif" font-size="12" lengthAdjust="spacing" textLength="39" x="748.25" y="148.1543">Frame</text><line style="stroke:#A80036;stroke-width:1.5;" x1="579" x2="924" y1="160" y2="160"/><line style="stroke:#A80036;stroke-width:1.5;" x1="579" x2="924" y1="168" y2="168"/><text fill="#000000" font-family="sans-serif" font-size="11" lengthAdjust="spacing" text-decoration="underline" textLength="335" x="584" y="182.2104">const btTransform convert(const G3D::CoordinateFrame&amp;)</text><text fill="#000000" font-family="sans-serif" font-size="11" lengthAdjust="spacing" text-decoration="underline" textLength="335" x="584" y="195.0151">const G3D::CoordinateFrame convert(const btTransform&amp;)</text><!--MD5=[56f3777c4a342cd8020ffcf5f59f8034]
class Matrix--><rect codeLine="28" fill="#FEFECE" filter="url(#fdsrj27lgqk52)" height="73.6094" id="Matrix" style="stroke:#A80036;stroke-width:1.5;" width="284" x="9.5" y="262"/><ellipse cx="128.75" cy="278" fill="#ADD1B2" rx="11" ry="11" style="stroke:#A80036;stroke-width:1.0;"/><path d="M131.7188,283.6406 Q131.1406,283.9375 130.5,284.0781 Q129.8594,284.2344 129.1563,284.2344 Q126.6563,284.2344 125.3281,282.5938 Q124.0156,280.9375 124.0156,277.8125 Q124.0156,274.6875 125.3281,273.0313 Q126.6563,271.375 129.1563,271.375 Q129.8594,271.375 130.5,271.5313 Q131.1563,271.6875 131.7188,271.9844 L131.7188,274.7031 Q131.0938,274.125 130.5,273.8594 Q129.9063,273.5781 129.2813,273.5781 Q127.9375,273.5781 127.25,274.6563 Q126.5625,275.7188 126.5625,277.8125 Q126.5625,279.9063 127.25,280.9844 Q127.9375,282.0469 129.2813,282.0469 Q129.9063,282.0469 130.5,281.7813 Q131.0938,281.5 131.7188,280.9219 L131.7188,283.6406 Z " fill="#000000"/><text fill="#000000" font-family="sans-serif" font-size="12" lengthAdjust="spacing" textLength="37" x="149.25" y="282.1543">Matrix</text><line style="stroke:#A80036;stroke-width:1.5;" x1="10.5" x2="292.5" y1="294" y2="294"/><line style="stroke:#A80036;stroke-width:1.5;" x1="10.5" x2="292.5" y1="302" y2="302"/><text fill="#000000" font-family="sans-serif" font-size="11" lengthAdjust="spacing" text-decoration="underline" textLength="272" x="15.5" y="316.2104">const btMatrix3x3 convert(const G3D::Matrix3&amp;)</text><text fill="#000000" font-family="sans-serif" font-size="11" lengthAdjust="spacing" text-decoration="underline" textLength="272" x="15.5" y="329.0151">const G3D::Matrix3 convert(const btMatrix3x3&amp;)</text><!--MD5=[ea775af43a0da7cb543d6bee4ab62c40]
class Vector--><rect codeLine="33" fill="#FEFECE" filter="url(#fdsrj27lgqk52)" height="73.6094" id="Vector" style="stroke:#A80036;stroke-width:1.5;" width="275" x="329" y="262"/><ellipse cx="441.75" cy="278" fill="#ADD1B2" rx="11" ry="11" style="stroke:#A80036;stroke-width:1.0;"/><path d="M444.7188,283.6406 Q444.1406,283.9375 443.5,284.0781 Q442.8594,284.2344 442.1563,284.2344 Q439.6563,284.2344 438.3281,282.5938 Q437.0156,280.9375 437.0156,277.8125 Q437.0156,274.6875 438.3281,273.0313 Q439.6563,271.375 442.1563,271.375 Q442.8594,271.375 443.5,271.5313 Q444.1563,271.6875 444.7188,271.9844 L444.7188,274.7031 Q444.0938,274.125 443.5,273.8594 Q442.9063,273.5781 442.2813,273.5781 Q440.9375,273.5781 440.25,274.6563 Q439.5625,275.7188 439.5625,277.8125 Q439.5625,279.9063 440.25,280.9844 Q440.9375,282.0469 442.2813,282.0469 Q442.9063,282.0469 443.5,281.7813 Q444.0938,281.5 444.7188,280.9219 L444.7188,283.6406 Z " fill="#000000"/><text fill="#000000" font-family="sans-serif" font-size="12" lengthAdjust="spacing" textLength="41" x="462.25" y="282.1543">Vector</text><line style="stroke:#A80036;stroke-width:1.5;" x1="330" x2="603" y1="294" y2="294"/><line style="stroke:#A80036;stroke-width:1.5;" x1="330" x2="603" y1="302" y2="302"/><text fill="#000000" font-family="sans-serif" font-size="11" lengthAdjust="spacing" text-decoration="underline" textLength="263" x="335" y="316.2104">const btVector3 convert(const G3D::Vector3&amp;)</text><text fill="#000000" font-family="sans-serif" font-size="11" lengthAdjust="spacing" text-decoration="underline" textLength="263" x="335" y="329.0151">const G3D::Vector3 convert(const btVector3&amp;)</text><!--MD5=[0a83a0373aa51e7e5c118bb25f3fb8f5]
link CollisionFactory to CollisionShapeFactory--><!--MD5=[c72bb7d213cefb49e7657fd3ba542349]
link CollisionShapeFactory to PhysicsBodyFactory--><!--MD5=[3934a549e1109b37ffc6fa4955301cf0]
link CollisionFactory to GhostObjectFactory--><!--MD5=[f7928c67593167b2255979db4b29fa60]
link GhostObjectFactory to DataFactory--><!--MD5=[53fd3645bd25bdc0e196b55c51ec0c73]
link DataFactory to Frame--><!--MD5=[553ed545fedf27fc11989a81c1e61c3c]
link GhostObjectFactory to Matrix--><!--MD5=[160ce817a23dc5b12fbd92897e50a5cb]
link Matrix to Vector--><!--MD5=[be1696df2c1c76c67bf5f4f61ddb7e47]
@startuml

class CollisionFactory {
    {static} EO *create(const GO *)
}

class CollisionShapeFactory {
    {static} btCollisionShape *create(const G3D::AShape *)
}

class PhysicsBodyFactory {
    {static} btRigidBody *create(const G3D::PhysicsEntity *)
}

class GhostObjectFactory {
    {static} btGhostObject *create(const G3D::GhostEntity *)
}

class DataFactory {
    {static} const inline ED convert(const GD&)
    {static} const inline GD convert(const ED&)
}

class Frame {
    {static} const btTransform convert(const G3D::CoordinateFrame&)
    {static} const G3D::CoordinateFrame convert(const btTransform&)
}

class Matrix  {
    {static} const btMatrix3x3 convert(const G3D::Matrix3&)
    {static} const G3D::Matrix3 convert(const btMatrix3x3&)
}

class Vector {
    {static} const btVector3 convert(const G3D::Vector3&)
    {static} const G3D::Vector3 convert(const btVector3&)
}
      
@enduml

PlantUML version 1.2021.00(Sun Jan 10 15:55:05 IST 2021)
(GPL source distribution)
Java Runtime: OpenJDK Runtime Environment
JVM: OpenJDK 64-Bit Server VM
Default Encoding: ANSI_X3.4-1968
Language: en
Country: US
--></g></svg>