<?xml version="1.0" encoding="UTF-8" standalone="no"?><svg xmlns="http://www.w3.org/2000/svg" xmlns:xlink="http://www.w3.org/1999/xlink" contentScriptType="application/ecmascript" contentStyleType="text/css" height="69px" preserveAspectRatio="none" style="width:223px;height:69px;" version="1.1" viewBox="0 0 223 69" width="223px" zoomAndPan="magnify"><defs><filter height="300%" id="f1ljur8mwkq4vg" width="300%" x="-1" y="-1"><feGaussianBlur result="blurOut" stdDeviation="2.0"/><feColorMatrix in="blurOut" result="blurOut2" type="matrix" values="0 0 0 0 0 0 0 0 0 0 0 0 0 0 0 0 0 0 .4 0"/><feOffset dx="4.0" dy="4.0" in="blurOut2" result="blurOut3"/><feBlend in="SourceGraphic" in2="blurOut3" mode="normal"/></filter></defs><g><!--MD5=[3637e2e3ff64f8c7ec072f5df5e3a1dc]
class Expression--><rect codeLine="2" fill="#FEFECE" filter="url(#f1ljur8mwkq4vg)" height="48" id="Expression" style="stroke:#A80036;stroke-width:1.5;" width="100" x="7" y="7"/><ellipse cx="22" cy="23" fill="#ADD1B2" rx="11" ry="11" style="stroke:#A80036;stroke-width:1.0;"/><path d="M24.9688,28.6406 Q24.3906,28.9375 23.75,29.0781 Q23.1094,29.2344 22.4063,29.2344 Q19.9063,29.2344 18.5781,27.5938 Q17.2656,25.9375 17.2656,22.8125 Q17.2656,19.6875 18.5781,18.0313 Q19.9063,16.375 22.4063,16.375 Q23.1094,16.375 23.75,16.5313 Q24.4063,16.6875 24.9688,16.9844 L24.9688,19.7031 Q24.3438,19.125 23.75,18.8594 Q23.1563,18.5781 22.5313,18.5781 Q21.1875,18.5781 20.5,19.6563 Q19.8125,20.7188 19.8125,22.8125 Q19.8125,24.9063 20.5,25.9844 Q21.1875,27.0469 22.5313,27.0469 Q23.1563,27.0469 23.75,26.7813 Q24.3438,26.5 24.9688,25.9219 L24.9688,28.6406 Z " fill="#000000"/><text fill="#000000" font-family="sans-serif" font-size="12" lengthAdjust="spacing" textLength="68" x="36" y="27.1543">Expression</text><line style="stroke:#A80036;stroke-width:1.5;" x1="8" x2="106" y1="39" y2="39"/><line style="stroke:#A80036;stroke-width:1.5;" x1="8" x2="106" y1="47" y2="47"/><!--MD5=[ff3d20c1112759d46dde2fcead238479]
class Value--><rect codeLine="3" fill="#FEFECE" filter="url(#f1ljur8mwkq4vg)" height="48" id="Value" style="stroke:#A80036;stroke-width:1.5;" width="67" x="142.5" y="7"/><ellipse cx="157.5" cy="23" fill="#ADD1B2" rx="11" ry="11" style="stroke:#A80036;stroke-width:1.0;"/><path d="M160.4688,28.6406 Q159.8906,28.9375 159.25,29.0781 Q158.6094,29.2344 157.9063,29.2344 Q155.4063,29.2344 154.0781,27.5938 Q152.7656,25.9375 152.7656,22.8125 Q152.7656,19.6875 154.0781,18.0313 Q155.4063,16.375 157.9063,16.375 Q158.6094,16.375 159.25,16.5313 Q159.9063,16.6875 160.4688,16.9844 L160.4688,19.7031 Q159.8438,19.125 159.25,18.8594 Q158.6563,18.5781 158.0313,18.5781 Q156.6875,18.5781 156,19.6563 Q155.3125,20.7188 155.3125,22.8125 Q155.3125,24.9063 156,25.9844 Q156.6875,27.0469 158.0313,27.0469 Q158.6563,27.0469 159.25,26.7813 Q159.8438,26.5 160.4688,25.9219 L160.4688,28.6406 Z " fill="#000000"/><text fill="#000000" font-family="sans-serif" font-size="12" lengthAdjust="spacing" textLength="35" x="171.5" y="27.1543">Value</text><line style="stroke:#A80036;stroke-width:1.5;" x1="143.5" x2="208.5" y1="39" y2="39"/><line style="stroke:#A80036;stroke-width:1.5;" x1="143.5" x2="208.5" y1="47" y2="47"/><!--MD5=[5811290685d5eb391fd7ca1801b5fc12]
@startuml

	class Expression
	class Value
	
@enduml

PlantUML version 1.2021.00(Sun Jan 10 15:55:05 IST 2021)
(GPL source distribution)
Java Runtime: OpenJDK Runtime Environment
JVM: OpenJDK 64-Bit Server VM
Default Encoding: ANSI_X3.4-1968
Language: en
Country: US
--></g></svg>