<?xml version="1.0" encoding="UTF-8" standalone="no"?><svg xmlns="http://www.w3.org/2000/svg" xmlns:xlink="http://www.w3.org/1999/xlink" contentScriptType="application/ecmascript" contentStyleType="text/css" height="253px" preserveAspectRatio="none" style="width:407px;height:253px;" version="1.1" viewBox="0 0 407 253" width="407px" zoomAndPan="magnify"><defs><filter height="300%" id="f1ehdbzw75lgfr" width="300%" x="-1" y="-1"><feGaussianBlur result="blurOut" stdDeviation="2.0"/><feColorMatrix in="blurOut" result="blurOut2" type="matrix" values="0 0 0 0 0 0 0 0 0 0 0 0 0 0 0 0 0 0 .4 0"/><feOffset dx="4.0" dy="4.0" in="blurOut2" result="blurOut3"/><feBlend in="SourceGraphic" in2="blurOut3" mode="normal"/></filter></defs><g><!--MD5=[3637e2e3ff64f8c7ec072f5df5e3a1dc]
class Expression--><rect codeLine="2" fill="#FEFECE" filter="url(#f1ehdbzw75lgfr)" height="60.8047" id="Expression" style="stroke:#A80036;stroke-width:1.5;" width="189" x="49" y="19.5"/><ellipse cx="105.75" cy="35.5" fill="#A9DCDF" rx="11" ry="11" style="stroke:#A80036;stroke-width:1.0;"/><path d="M105.8594,30.8438 L104.7031,35.9219 L107.0313,35.9219 L105.8594,30.8438 Z M104.375,28.6094 L107.3594,28.6094 L110.7188,41 L108.2656,41 L107.5,37.9375 L104.2188,37.9375 L103.4688,41 L101.0313,41 L104.375,28.6094 Z " fill="#000000"/><text fill="#000000" font-family="sans-serif" font-size="12" font-style="italic" lengthAdjust="spacing" textLength="67" x="126.25" y="39.6543">Expression</text><line style="stroke:#A80036;stroke-width:1.5;" x1="50" x2="237" y1="51.5" y2="51.5"/><line style="stroke:#A80036;stroke-width:1.5;" x1="50" x2="237" y1="59.5" y2="59.5"/><text fill="#000000" font-family="sans-serif" font-size="11" lengthAdjust="spacing" textLength="177" x="55" y="73.7104">abstact print(Expression&amp;) = 0</text><!--MD5=[ff3d20c1112759d46dde2fcead238479]
class Value--><rect codeLine="5" fill="#FEFECE" filter="url(#f1ehdbzw75lgfr)" height="73.6094" id="Value" style="stroke:#A80036;stroke-width:1.5;" width="119" x="7" y="159"/><ellipse cx="45.4" cy="175" fill="#ADD1B2" rx="11" ry="11" style="stroke:#A80036;stroke-width:1.0;"/><path d="M48.3688,180.6406 Q47.7906,180.9375 47.15,181.0781 Q46.5094,181.2344 45.8063,181.2344 Q43.3063,181.2344 41.9781,179.5938 Q40.6656,177.9375 40.6656,174.8125 Q40.6656,171.6875 41.9781,170.0313 Q43.3063,168.375 45.8063,168.375 Q46.5094,168.375 47.15,168.5313 Q47.8063,168.6875 48.3688,168.9844 L48.3688,171.7031 Q47.7438,171.125 47.15,170.8594 Q46.5563,170.5781 45.9313,170.5781 Q44.5875,170.5781 43.9,171.6563 Q43.2125,172.7188 43.2125,174.8125 Q43.2125,176.9063 43.9,177.9844 Q44.5875,179.0469 45.9313,179.0469 Q46.5563,179.0469 47.15,178.7813 Q47.7438,178.5 48.3688,177.9219 L48.3688,180.6406 Z " fill="#000000"/><text fill="#000000" font-family="sans-serif" font-size="12" lengthAdjust="spacing" textLength="35" x="64.6" y="179.1543">Value</text><line style="stroke:#A80036;stroke-width:1.5;" x1="8" x2="125" y1="191" y2="191"/><rect fill="none" height="6" style="stroke:#C82930;stroke-width:1.0;" width="6" x="15" y="199"/><text fill="#000000" font-family="sans-serif" font-size="11" lengthAdjust="spacing" textLength="48" x="27" y="205.2104">int value</text><line style="stroke:#A80036;stroke-width:1.5;" x1="8" x2="125" y1="211.8047" y2="211.8047"/><text fill="#000000" font-family="sans-serif" font-size="11" lengthAdjust="spacing" textLength="107" x="13" y="226.0151">print(Expression&amp;)</text><!--MD5=[4e916b5516e51ac6308a192ab863475a]
class Addition--><rect codeLine="9" fill="#FEFECE" filter="url(#f1ehdbzw75lgfr)" height="86.4141" id="Addition" style="stroke:#A80036;stroke-width:1.5;" width="120" x="161.5" y="153"/><ellipse cx="193.15" cy="169" fill="#ADD1B2" rx="11" ry="11" style="stroke:#A80036;stroke-width:1.0;"/><path d="M196.1188,174.6406 Q195.5406,174.9375 194.9,175.0781 Q194.2594,175.2344 193.5563,175.2344 Q191.0563,175.2344 189.7281,173.5938 Q188.4156,171.9375 188.4156,168.8125 Q188.4156,165.6875 189.7281,164.0313 Q191.0563,162.375 193.5563,162.375 Q194.2594,162.375 194.9,162.5313 Q195.5563,162.6875 196.1188,162.9844 L196.1188,165.7031 Q195.4938,165.125 194.9,164.8594 Q194.3063,164.5781 193.6813,164.5781 Q192.3375,164.5781 191.65,165.6563 Q190.9625,166.7188 190.9625,168.8125 Q190.9625,170.9063 191.65,171.9844 Q192.3375,173.0469 193.6813,173.0469 Q194.3063,173.0469 194.9,172.7813 Q195.4938,172.5 196.1188,171.9219 L196.1188,174.6406 Z " fill="#000000"/><text fill="#000000" font-family="sans-serif" font-size="12" lengthAdjust="spacing" textLength="51" x="210.85" y="173.1543">Addition</text><line style="stroke:#A80036;stroke-width:1.5;" x1="162.5" x2="280.5" y1="185" y2="185"/><rect fill="none" height="6" style="stroke:#C82930;stroke-width:1.0;" width="6" x="169.5" y="193"/><text fill="#000000" font-family="sans-serif" font-size="11" lengthAdjust="spacing" textLength="94" x="181.5" y="199.2104">Expression&amp; lhs</text><rect fill="none" height="6" style="stroke:#C82930;stroke-width:1.0;" width="6" x="169.5" y="205.8047"/><text fill="#000000" font-family="sans-serif" font-size="11" lengthAdjust="spacing" textLength="94" x="181.5" y="212.0151">Expression&amp; lhs</text><line style="stroke:#A80036;stroke-width:1.5;" x1="162.5" x2="280.5" y1="218.6094" y2="218.6094"/><text fill="#000000" font-family="sans-serif" font-size="11" lengthAdjust="spacing" textLength="107" x="167.5" y="232.8198">print(Expression&amp;)</text><!--MD5=[a80aeb25cfca85a61c4213d8f76e28b6]
class Multiplication--><rect codeLine="14" fill="#FEFECE" filter="url(#f1ehdbzw75lgfr)" height="86.4141" id="Multiplication" style="stroke:#A80036;stroke-width:1.5;" width="120" x="273.5" y="7"/><ellipse cx="291.2" cy="23" fill="#ADD1B2" rx="11" ry="11" style="stroke:#A80036;stroke-width:1.0;"/><path d="M294.1688,28.6406 Q293.5906,28.9375 292.95,29.0781 Q292.3094,29.2344 291.6063,29.2344 Q289.1063,29.2344 287.7781,27.5938 Q286.4656,25.9375 286.4656,22.8125 Q286.4656,19.6875 287.7781,18.0313 Q289.1063,16.375 291.6063,16.375 Q292.3094,16.375 292.95,16.5313 Q293.6063,16.6875 294.1688,16.9844 L294.1688,19.7031 Q293.5438,19.125 292.95,18.8594 Q292.3563,18.5781 291.7313,18.5781 Q290.3875,18.5781 289.7,19.6563 Q289.0125,20.7188 289.0125,22.8125 Q289.0125,24.9063 289.7,25.9844 Q290.3875,27.0469 291.7313,27.0469 Q292.3563,27.0469 292.95,26.7813 Q293.5438,26.5 294.1688,25.9219 L294.1688,28.6406 Z " fill="#000000"/><text fill="#000000" font-family="sans-serif" font-size="12" lengthAdjust="spacing" textLength="82" x="305.8" y="27.1543">Multiplication</text><line style="stroke:#A80036;stroke-width:1.5;" x1="274.5" x2="392.5" y1="39" y2="39"/><rect fill="none" height="6" style="stroke:#C82930;stroke-width:1.0;" width="6" x="281.5" y="47"/><text fill="#000000" font-family="sans-serif" font-size="11" lengthAdjust="spacing" textLength="94" x="293.5" y="53.2104">Expression&amp; lhs</text><rect fill="none" height="6" style="stroke:#C82930;stroke-width:1.0;" width="6" x="281.5" y="59.8047"/><text fill="#000000" font-family="sans-serif" font-size="11" lengthAdjust="spacing" textLength="94" x="293.5" y="66.0151">Expression&amp; lhs</text><line style="stroke:#A80036;stroke-width:1.5;" x1="274.5" x2="392.5" y1="72.6094" y2="72.6094"/><text fill="#000000" font-family="sans-serif" font-size="11" lengthAdjust="spacing" textLength="107" x="279.5" y="86.8198">print(Expression&amp;)</text><!--MD5=[6b80e7eb9da08f51a279413cdef32010]
reverse link Expression to Value--><path codeLine="20" d="M118.05,98.59 C107.56,118.21 95.6,140.58 85.84,158.82 " fill="none" id="Expression-backto-Value" style="stroke:#A80036;stroke-width:1.0;"/><polygon fill="none" points="111.94,95.17,127.55,80.84,124.29,101.77,111.94,95.17" style="stroke:#A80036;stroke-width:1.0;"/><!--MD5=[345e47141b068175f89006910964ebf2]
reverse link Expression to Addition--><path codeLine="21" d="M169.22,98.48 C178.74,116.06 189.46,135.85 198.7,152.92 " fill="none" id="Expression-backto-Addition" style="stroke:#A80036;stroke-width:1.0;"/><polygon fill="none" points="163.03,101.76,159.66,80.84,175.34,95.09,163.03,101.76" style="stroke:#A80036;stroke-width:1.0;"/><!--MD5=[e7159785daec56dddd99b5512ad89fc0]
@startuml

abstract class Expression {
abstact print(Expression&) = 0
}
class Value {
-int value
print(Expression&)
}
class Addition {
-Expression& lhs
-Expression& lhs
print(Expression&)
}
class Multiplication{
-Expression& lhs
-Expression& lhs
print(Expression&)
}

Expression <|- - Value
Expression <|- - Addition
	
@enduml

PlantUML version 1.2021.00(Sun Jan 10 15:55:05 IST 2021)
(GPL source distribution)
Java Runtime: OpenJDK Runtime Environment
JVM: OpenJDK 64-Bit Server VM
Default Encoding: ANSI_X3.4-1968
Language: en
Country: US
--></g></svg>